<svg width="889" height="71" viewBox="0 0 889 71" fill="none" xmlns="http://www.w3.org/2000/svg">
<path d="M1.04688 53L0.953125 49.8594L4.65625 48.8281L20.0781 10.4375L25.0469 7.48438L41.7344 48.8281L45.5312 49.8594L45.2969 53H28.5156L28.375 49.8594L33.0156 48.8281L28.6562 38.0469L27.8125 35.6562L19.8438 16.0625L21.7188 15.6406L14.4531 35.6562L13.6094 37.9062L9.76562 48.8281L14.4531 49.8594L14.3125 53H1.04688ZM12.0156 39.5V35.1406C12.9844 35.1719 14.2344 35.2188 15.7656 35.2812C17.2969 35.3125 19.1875 35.3281 21.4375 35.3281C23.6875 35.3281 25.5938 35.3125 27.1562 35.2812C28.7188 35.2188 29.9531 35.1719 30.8594 35.1406V39.4062C29.3906 39.4062 27.875 39.3906 26.3125 39.3594C24.75 39.2969 23.125 39.2656 21.4375 39.2656C19.7812 39.2656 18.1875 39.2969 16.6562 39.3594C15.1562 39.3906 13.6094 39.4375 12.0156 39.5ZM59.875 53.5625C57.9688 53.5625 56.0469 53.3594 54.1094 52.9531C52.1719 52.5469 50.5469 51.9688 49.2344 51.2188L48.8594 42.9219H52.8906L54.4844 48.3594C56.1406 49.5156 58.125 50.0938 60.4375 50.0938C62.0938 50.0938 63.4062 49.7188 64.375 48.9688C65.3438 48.1875 65.8281 47.1562 65.8281 45.875C65.8281 44.5938 65.3594 43.5 64.4219 42.5938C63.5156 41.6875 61.6875 40.6719 58.9375 39.5469C55.3438 38.0781 52.8125 36.6094 51.3438 35.1406C49.875 33.6406 49.1406 31.7344 49.1406 29.4219C49.1406 26.6406 50.3906 24.3594 52.8906 22.5781C55.3906 20.7656 58.625 19.8594 62.5938 19.8594C65.8125 19.8594 68.5781 20.3594 70.8906 21.3594L71.6875 29.4219H67.7031L65.9688 24.2188C64.8438 23.5625 63.5156 23.2344 61.9844 23.2344C60.2969 23.2344 58.9531 23.6406 57.9531 24.4531C56.9531 25.2344 56.4531 26.2344 56.4531 27.4531C56.4531 28.8281 57 29.9688 58.0938 30.875C59.2188 31.7812 61.25 32.875 64.1875 34.1562C67.5 35.5938 69.8281 37.0625 71.1719 38.5625C72.5469 40.0312 73.2344 41.8438 73.2344 44C73.2344 46.8438 71.9844 49.1562 69.4844 50.9375C66.9844 52.6875 63.7812 53.5625 59.875 53.5625ZM77.5938 69.5469L77.3594 66.5938L82 65.375C82.0625 64.875 82.125 63.5156 82.1875 61.2969C82.2812 59.0781 82.3438 56.0938 82.375 52.3438L82.5625 34.9531C82.5625 33.4531 82.4844 32 82.3281 30.5938C82.2031 29.1562 82.0469 27.9062 81.8594 26.8438L77.0312 25.7656V23L88.1875 20L89.7812 21.2656L89.3125 25.4844L89.5469 25.5781C90.8594 23.7656 92.375 22.3594 94.0938 21.3594C95.8125 20.3594 97.6562 19.8594 99.625 19.8594C102.25 19.8594 104.625 20.5312 106.75 21.875C108.875 23.1875 110.562 25.0312 111.812 27.4062C113.062 29.7812 113.688 32.5469 113.688 35.7031C113.688 39.0469 112.922 42.0625 111.391 44.75C109.891 47.4375 107.812 49.5781 105.156 51.1719C102.531 52.7344 99.5 53.5156 96.0625 53.5156C93.8125 53.5156 91.6406 53.125 89.5469 52.3438V57.7344C89.5469 59.5469 89.5781 61.1406 89.6406 62.5156C89.7031 63.8906 89.7656 64.8438 89.8281 65.375L96.0156 66.4531L95.7812 69.5469H77.5938ZM96.2969 49.3438C99.1406 49.3438 101.422 48.3438 103.141 46.3438C104.891 44.3125 105.797 41.3438 105.859 37.4375C105.922 33.8125 105.062 30.9375 103.281 28.8125C101.531 26.6562 99.3594 25.5781 96.7656 25.5781C93.8906 25.5781 91.4844 26.8594 89.5469 29.4219V47.2344C91.3281 48.6406 93.5781 49.3438 96.2969 49.3438ZM118.375 53L118.188 50L123.203 48.875C123.266 48.625 123.328 47.9062 123.391 46.7188C123.484 45.5 123.547 43.6094 123.578 41.0469V35.7031C123.578 32.0781 123.375 29.125 122.969 26.8438L117.953 25.7656V23L129.672 20L131.125 21.2188C130.969 22.75 130.844 24.2812 130.75 25.8125C130.688 27.3438 130.656 29.1094 130.656 31.1094V40.625C130.656 42.7188 130.688 44.5312 130.75 46.0625C130.844 47.5625 130.969 48.5 131.125 48.875L136.141 50L135.906 53H118.375ZM127.234 12.2656C125.703 12.2656 124.453 11.7812 123.484 10.8125C122.516 9.84375 122.031 8.67188 122.031 7.29688C122.031 5.92188 122.516 4.75 123.484 3.78125C124.453 2.8125 125.703 2.32812 127.234 2.32812C128.734 2.32812 129.938 2.8125 130.844 3.78125C131.781 4.75 132.25 5.92188 132.25 7.29688C132.25 8.67188 131.781 9.84375 130.844 10.8125C129.938 11.7812 128.734 12.2656 127.234 12.2656ZM139.562 53L139.375 50.0938L144.016 48.875C144.078 48.5312 144.141 47.7344 144.203 46.4844C144.297 45.2031 144.359 43.3906 144.391 41.0469L144.484 35.2812C144.484 33.6562 144.406 32.1094 144.25 30.6406C144.125 29.1719 143.969 27.9062 143.781 26.8438L139 25.7656V23L150.062 20L151.375 21.125L151.094 27.3125L151.328 27.3594C152.797 24.5469 154.297 22.6406 155.828 21.6406C157.359 20.6094 158.844 20.0938 160.281 20.0938C161.531 20.0938 162.562 20.4062 163.375 21.0312C164.219 21.6562 164.641 22.6094 164.641 23.8906C164.641 25.2344 164.188 26.2656 163.281 26.9844C162.406 27.7031 161.297 28.0625 159.953 28.0625C158.016 28.0625 156.219 27.2344 154.562 25.5781L156.156 25.9531C154.344 27.1094 152.75 29.1406 151.375 32.0469L151.469 38.6562C151.531 40.8438 151.594 42.9219 151.656 44.8906C151.75 46.8281 151.844 48.1562 151.938 48.875L158.453 49.9531L158.312 53H139.562ZM167.594 53L167.406 50L172.422 48.875C172.484 48.625 172.547 47.9062 172.609 46.7188C172.703 45.5 172.766 43.6094 172.797 41.0469V35.7031C172.797 32.0781 172.594 29.125 172.188 26.8438L167.172 25.7656V23L178.891 20L180.344 21.2188C180.188 22.75 180.062 24.2812 179.969 25.8125C179.906 27.3438 179.875 29.1094 179.875 31.1094V40.625C179.875 42.7188 179.906 44.5312 179.969 46.0625C180.062 47.5625 180.188 48.5 180.344 48.875L185.359 50L185.125 53H167.594ZM176.453 12.2656C174.922 12.2656 173.672 11.7812 172.703 10.8125C171.734 9.84375 171.25 8.67188 171.25 7.29688C171.25 5.92188 171.734 4.75 172.703 3.78125C173.672 2.8125 174.922 2.32812 176.453 2.32812C177.953 2.32812 179.156 2.8125 180.062 3.78125C181 4.75 181.469 5.92188 181.469 7.29688C181.469 8.67188 181 9.84375 180.062 10.8125C179.156 11.7812 177.953 12.2656 176.453 12.2656ZM188.734 53L188.5 50.0938L193.188 48.875C193.25 48.5 193.312 47.7031 193.375 46.4844C193.469 45.2344 193.531 43.4219 193.562 41.0469L193.609 35.2812C193.609 33.6562 193.547 32.1094 193.422 30.6406C193.297 29.1719 193.141 27.9062 192.953 26.8438L188.125 25.7656V23L199.281 20L200.828 21.2656L200.406 25.3438L200.594 25.3906C203.906 21.7031 207.547 19.8594 211.516 19.8594C214.391 19.8594 216.922 20.9688 219.109 23.1875C221.328 25.375 222.438 28.6562 222.438 33.0312V41.1406C222.438 42.8906 222.469 44.5156 222.531 46.0156C222.625 47.4844 222.75 48.4375 222.906 48.875L227.547 50.0938L227.312 53H210.906L210.766 50.0938L215.125 48.875C215.188 48.3125 215.25 47.4062 215.312 46.1562C215.406 44.9062 215.453 43.3594 215.453 41.5156V33.9688C215.453 30.8125 214.703 28.5781 213.203 27.2656C211.703 25.9219 210.062 25.25 208.281 25.25C205.156 25.25 202.594 26.6406 200.594 29.4219V40.625C200.594 42.75 200.625 44.5469 200.688 46.0156C200.781 47.4844 200.875 48.4375 200.969 48.875L205.656 50.0938L205.422 53H188.734ZM246.578 70.1094C241.766 70.1094 237.969 69.3594 235.188 67.8594C232.406 66.3594 231.016 64.3594 231.016 61.8594C231.016 58.5781 234 55.6406 239.969 53.0469L242.969 53.5625C241.469 54.5 240.281 55.5781 239.406 56.7969C238.562 58.0156 238.141 59.3281 238.141 60.7344C238.141 62.6094 238.922 64.0625 240.484 65.0938C242.078 66.1562 244.266 66.6875 247.047 66.6875C250.109 66.6875 252.625 66.0156 254.594 64.6719C256.562 63.3594 257.547 61.6719 257.547 59.6094C257.547 58.0469 256.969 56.875 255.812 56.0938C254.688 55.3438 252.797 54.8594 250.141 54.6406L241.703 53.9375L240.719 53.5625C238.656 53.5625 236.953 53.0938 235.609 52.1562C234.297 51.1875 233.641 49.9688 233.641 48.5C233.641 47.0625 234.328 45.6875 235.703 44.375C237.109 43.0625 239.031 41.9375 241.469 41L242.5 42.4062C240.844 43.625 240.016 44.6562 240.016 45.5C240.016 46.9375 241.078 47.7344 243.203 47.8906L253.422 48.9688C260.641 49.625 264.25 52.5625 264.25 57.7812C264.25 60.0938 263.469 62.1719 261.906 64.0156C260.375 65.8906 258.266 67.375 255.578 68.4688C252.922 69.5625 249.922 70.1094 246.578 70.1094ZM247.094 43.8594C242.938 43.8594 239.547 42.7969 236.922 40.6719C234.297 38.5156 232.984 35.7656 232.984 32.4219C232.984 30.0156 233.609 27.875 234.859 26C236.109 24.0938 237.797 22.5938 239.922 21.5C242.078 20.4062 244.5 19.8594 247.188 19.8594C251.188 19.8594 254.484 21 257.078 23.2812C259.703 25.5625 261.016 28.4219 261.016 31.8594C261.016 35.2969 259.688 38.1562 257.031 40.4375C254.406 42.7188 251.094 43.8594 247.094 43.8594ZM247.562 40.3906C249.438 40.3906 250.938 39.6719 252.062 38.2344C253.188 36.7656 253.75 34.7969 253.75 32.3281C253.75 29.5781 253.141 27.375 251.922 25.7188C250.703 24.0625 249.094 23.2344 247.094 23.2344C245.219 23.2344 243.688 24.0312 242.5 25.625C241.312 27.1875 240.719 29.2188 240.719 31.7188C240.719 34.3125 241.344 36.4062 242.594 38C243.875 39.5938 245.531 40.3906 247.562 40.3906ZM265.469 25.7656L256.047 25.0156L253.188 21.875L265.469 20.6094V25.7656ZM312.812 53.6562C310.625 53.6562 308.328 53.3906 305.922 52.8594C303.547 52.2969 301.578 51.5781 300.016 50.7031L299.641 40.4375L303.344 40.1562L305.594 47.2344C308.031 48.7969 310.781 49.5781 313.844 49.5781C316.312 49.5781 318.234 49.0312 319.609 47.9375C320.984 46.8125 321.672 45.2656 321.672 43.2969C321.672 41.5469 321.141 40.1094 320.078 38.9844C319.047 37.8281 317.688 36.8438 316 36.0312C314.344 35.2188 312.578 34.4219 310.703 33.6406C308.859 32.8281 307.094 31.8906 305.406 30.8281C303.75 29.7656 302.391 28.4531 301.328 26.8906C300.297 25.2969 299.781 23.2812 299.781 20.8438C299.781 17.0312 301.328 13.9531 304.422 11.6094C307.547 9.26562 311.594 8.09375 316.562 8.09375C318.438 8.09375 320.297 8.25 322.141 8.5625C324.016 8.84375 325.625 9.29688 326.969 9.92188L327.625 19.8594L323.875 20.1406L321.672 13.4375C320.016 12.5 318.031 12.0312 315.719 12.0312C313.344 12.0312 311.422 12.625 309.953 13.8125C308.484 14.9688 307.75 16.5312 307.75 18.5C307.75 20.25 308.281 21.7188 309.344 22.9062C310.406 24.0625 311.781 25.0781 313.469 25.9531C315.156 26.8281 316.938 27.6719 318.812 28.4844C320.688 29.2969 322.469 30.2344 324.156 31.2969C325.844 32.3281 327.219 33.6094 328.281 35.1406C329.344 36.6719 329.875 38.5938 329.875 40.9062C329.875 44.625 328.281 47.6875 325.094 50.0938C321.938 52.4688 317.844 53.6562 312.812 53.6562ZM352 53.5625C347 53.5625 342.969 52.0156 339.906 48.9219C336.844 45.8281 335.312 41.8281 335.312 36.9219C335.312 33.4219 336.094 30.4062 337.656 27.875C339.219 25.3125 341.281 23.3438 343.844 21.9688C346.438 20.5625 349.266 19.8594 352.328 19.8594C357.109 19.8594 360.953 21.3906 363.859 24.4531C366.797 27.5156 368.266 31.5156 368.266 36.4531C368.266 39.6719 367.547 42.5781 366.109 45.1719C364.672 47.7344 362.719 49.7812 360.25 51.3125C357.812 52.8125 355.062 53.5625 352 53.5625ZM352.75 49.7188C355.094 49.7188 356.953 48.6719 358.328 46.5781C359.703 44.4531 360.391 41.6406 360.391 38.1406C360.391 33.7969 359.562 30.2969 357.906 27.6406C356.25 24.9531 354.062 23.6094 351.344 23.6094C348.906 23.6094 346.953 24.6875 345.484 26.8438C344.016 28.9688 343.281 31.8281 343.281 35.4219C343.281 39.5781 344.172 43 345.953 45.6875C347.734 48.375 350 49.7188 352.75 49.7188ZM391.422 53H373.516L373.281 50.0938L377.969 48.875C378.031 47.75 378.062 46.3906 378.062 44.7969C378.094 43.2031 378.109 40.5469 378.109 36.8281L378.062 24.6406V16.625C378.062 11.7812 379.234 7.89062 381.578 4.95312C383.953 1.98438 387.031 0.5 390.812 0.5C393 0.5 394.828 0.96875 396.297 1.90625C397.766 2.84375 398.5 4.03125 398.5 5.46875C398.5 6.28125 398.219 6.92188 397.656 7.39062C397.125 7.85938 396.453 8.09375 395.641 8.09375C394.359 8.09375 393.078 7.51562 391.797 6.35938L388.141 2.84375L390.391 3.3125C386.766 3.3125 384.953 6.92188 384.953 14.1406V20.6094L385.094 24.6406L385.188 36.4062C385.188 38.6875 385.219 41 385.281 43.3438C385.344 45.6562 385.406 47.5 385.469 48.875L391.656 50L391.422 53ZM372.625 24.6406V21.875L378.062 20.5156L383.219 20.6094H393.25V24.6406H372.625ZM421.281 47.8438C420.375 49.6562 419.047 51.0625 417.297 52.0625C415.547 53.0625 413.656 53.5625 411.625 53.5625C408.469 53.5625 405.859 52.625 403.797 50.75C401.766 48.875 400.75 46.0156 400.75 42.1719L400.938 24.5938H395.688V22.7656L406.375 13.5312H408.156L408.016 22.7656L407.875 41.1406C407.875 45.8594 409.953 48.2188 414.109 48.2188C416.234 48.2188 418.125 47.4375 419.781 45.875L421.281 47.8438ZM404.734 24.5938V20.5156H419.078V24.5938H404.734ZM459.625 53.2812L447.672 24.5938L443.922 23.375L444.062 20.4688H459.344L459.484 23.375L455.547 24.5938L463.984 46.0156H462.016L470.688 24.5938L466.797 23.375L466.938 20.4688H479.031L479.172 23.375L475.656 24.5938L462.344 53.2812H459.625ZM437.125 53.2812L424.562 24.5938L421.047 23.375L421.188 20.4688H436.469L436.609 23.375L432.859 24.5938L441.812 46.0156H439.562L449.078 24.125L451.375 28.8594L439.75 53.2812H437.125ZM493.469 53.5625C491.312 53.5625 489.438 53.1406 487.844 52.2969C486.281 51.4219 485.062 50.3281 484.188 49.0156C483.344 47.7031 482.922 46.4062 482.922 45.125C482.922 43.375 483.469 41.9375 484.562 40.8125C485.656 39.6875 487.438 38.7344 489.906 37.9531L501.484 34.2031V30.7344C501.484 28.9844 500.688 27.4688 499.094 26.1875C497.531 24.875 495.672 24.2188 493.516 24.2188C492.359 24.2188 491.578 24.4688 491.172 24.9688C490.766 25.4375 490.516 26.3594 490.422 27.7344L490.234 31.3438C488.203 31.8125 486.5 31.75 485.125 31.1562C483.75 30.5625 483.062 29.5938 483.062 28.25C483.062 27.125 483.75 25.9688 485.125 24.7812C486.531 23.5625 488.219 22.5 490.188 21.5938C492.156 20.6875 494 20.1094 495.719 19.8594C499.656 19.8594 502.812 20.8594 505.188 22.8594C507.562 24.8281 508.766 27.4375 508.797 30.6875L508.562 42.5469C508.562 43.6406 508.594 44.6406 508.656 45.5469C508.75 46.4219 508.906 47.0781 509.125 47.5156L513.906 48.4531V51.0781L509.875 52.625C509.094 52.9062 508.375 53.125 507.719 53.2812C507.094 53.4688 506.531 53.5625 506.031 53.5625C504.344 53.5625 503.203 52.6875 502.609 50.9375L501.672 47.75L502.938 47.8906C499.719 51.6719 496.562 53.5625 493.469 53.5625ZM496.094 48.4531C498.031 48.4531 499.828 47.5469 501.484 45.7344V37.9531L494.125 39.7812C491.875 40.3438 490.75 41.625 490.75 43.625C490.75 44.875 491.266 46 492.297 47C493.359 47.9688 494.625 48.4531 496.094 48.4531ZM517.281 53L517.094 50.0938L521.734 48.875C521.797 48.5312 521.859 47.7344 521.922 46.4844C522.016 45.2031 522.078 43.3906 522.109 41.0469L522.203 35.2812C522.203 33.6562 522.125 32.1094 521.969 30.6406C521.844 29.1719 521.688 27.9062 521.5 26.8438L516.719 25.7656V23L527.781 20L529.094 21.125L528.812 27.3125L529.047 27.3594C530.516 24.5469 532.016 22.6406 533.547 21.6406C535.078 20.6094 536.562 20.0938 538 20.0938C539.25 20.0938 540.281 20.4062 541.094 21.0312C541.938 21.6562 542.359 22.6094 542.359 23.8906C542.359 25.2344 541.906 26.2656 541 26.9844C540.125 27.7031 539.016 28.0625 537.672 28.0625C535.734 28.0625 533.938 27.2344 532.281 25.5781L533.875 25.9531C532.062 27.1094 530.469 29.1406 529.094 32.0469L529.188 38.6562C529.25 40.8438 529.312 42.9219 529.375 44.8906C529.469 46.8281 529.562 48.1562 529.656 48.875L536.172 49.9531L536.031 53H517.281ZM562.469 53.5625C559.469 53.5625 556.766 52.8906 554.359 51.5469C551.984 50.2031 550.094 48.3125 548.688 45.875C547.312 43.4375 546.625 40.5781 546.625 37.2969C546.625 33.7656 547.375 30.6875 548.875 28.0625C550.375 25.4375 552.328 23.4062 554.734 21.9688C557.172 20.5312 559.781 19.8281 562.562 19.8594C566.719 19.8906 569.906 21.2344 572.125 23.8906C574.375 26.5156 575.5 30.0781 575.5 34.5781V36.0781H552.766V32.5625H569.781L568.797 33.8281V31.9531C568.797 29.2031 568.188 27.0781 566.969 25.5781C565.75 24.0781 564.078 23.3281 561.953 23.3281C559.891 23.3281 558.062 24.2344 556.469 26.0469C554.906 27.8281 554.125 30.5312 554.125 34.1562V35.2812C554.125 39.1875 555.109 42.2656 557.078 44.5156C559.078 46.7656 561.688 47.8906 564.906 47.8906C566.656 47.8906 568.219 47.5625 569.594 46.9062C570.969 46.25 572.312 45.125 573.625 43.5312L575.641 45.4062C574.203 48.1562 572.359 50.2031 570.109 51.5469C567.859 52.8906 565.312 53.5625 562.469 53.5625ZM644.5 53.375C643.094 53.2188 641.672 53.1094 640.234 53.0469C638.828 53.0156 637.531 53 636.344 53H610.469L610.234 49.8594L614.969 48.8281C615.094 48.4844 615.188 47.3281 615.25 45.3594C615.312 43.3594 615.344 40.75 615.344 37.5312V24.4531C615.344 21.1094 615.312 18.4531 615.25 16.4844C615.188 14.5156 615.094 13.375 614.969 13.0625L610.234 12.0312L610.469 8.84375H634.328C635.516 8.84375 636.922 8.82812 638.547 8.79688C640.172 8.76562 641.703 8.6875 643.141 8.5625L644.781 18.875L641.078 19.3906L638.453 13.0156C637.547 12.7969 636.516 12.6875 635.359 12.6875H627.766C626.797 12.6875 625.922 12.7188 625.141 12.7812C624.359 12.8125 623.656 12.8594 623.031 12.9219C623 13.3281 622.969 14.3906 622.938 16.1094C622.906 17.8281 622.891 19.7031 622.891 21.7344V40.5312C622.891 42.375 622.906 44.0625 622.938 45.5938C622.969 47.0938 623 48.1094 623.031 48.6406C623.844 48.7344 624.656 48.7969 625.469 48.8281C626.312 48.8594 627.312 48.875 628.469 48.875H634.703C636.453 48.875 637.672 48.8594 638.359 48.8281C639.047 48.7969 639.609 48.7188 640.047 48.5938L644.031 41.375L647.734 42.0312L644.5 53.375ZM635.734 37.6719L634.938 32.6562C634.219 32.4375 632.953 32.3281 631.141 32.3281H626.031C625.281 32.3281 624.531 32.3594 623.781 32.4219C623.031 32.4531 622.312 32.5 621.625 32.5625V28.1094C623 28.2031 624.469 28.25 626.031 28.25H631.141C633.078 28.25 634.344 28.2031 634.938 28.1094L635.734 22.9062H639.297V37.6719H635.734ZM651.672 53L651.438 50.0938L656.125 48.875C656.188 48.5 656.25 47.7031 656.312 46.4844C656.406 45.2344 656.469 43.4219 656.5 41.0469L656.547 35.2812C656.547 33.6562 656.484 32.1094 656.359 30.6406C656.234 29.1719 656.078 27.9062 655.891 26.8438L651.062 25.7656V23L662.219 20L663.766 21.2656L663.344 25.3438L663.531 25.3906C666.844 21.7031 670.484 19.8594 674.453 19.8594C677.328 19.8594 679.859 20.9688 682.047 23.1875C684.266 25.375 685.375 28.6562 685.375 33.0312V41.1406C685.375 42.8906 685.406 44.5156 685.469 46.0156C685.562 47.4844 685.688 48.4375 685.844 48.875L690.484 50.0938L690.25 53H673.844L673.703 50.0938L678.062 48.875C678.125 48.3125 678.188 47.4062 678.25 46.1562C678.344 44.9062 678.391 43.3594 678.391 41.5156V33.9688C678.391 30.8125 677.641 28.5781 676.141 27.2656C674.641 25.9219 673 25.25 671.219 25.25C668.094 25.25 665.531 26.6406 663.531 29.4219V40.625C663.531 42.75 663.562 44.5469 663.625 46.0156C663.719 47.4844 663.812 48.4375 663.906 48.875L668.594 50.0938L668.359 53H651.672ZM709.516 70.1094C704.703 70.1094 700.906 69.3594 698.125 67.8594C695.344 66.3594 693.953 64.3594 693.953 61.8594C693.953 58.5781 696.938 55.6406 702.906 53.0469L705.906 53.5625C704.406 54.5 703.219 55.5781 702.344 56.7969C701.5 58.0156 701.078 59.3281 701.078 60.7344C701.078 62.6094 701.859 64.0625 703.422 65.0938C705.016 66.1562 707.203 66.6875 709.984 66.6875C713.047 66.6875 715.562 66.0156 717.531 64.6719C719.5 63.3594 720.484 61.6719 720.484 59.6094C720.484 58.0469 719.906 56.875 718.75 56.0938C717.625 55.3438 715.734 54.8594 713.078 54.6406L704.641 53.9375L703.656 53.5625C701.594 53.5625 699.891 53.0938 698.547 52.1562C697.234 51.1875 696.578 49.9688 696.578 48.5C696.578 47.0625 697.266 45.6875 698.641 44.375C700.047 43.0625 701.969 41.9375 704.406 41L705.438 42.4062C703.781 43.625 702.953 44.6562 702.953 45.5C702.953 46.9375 704.016 47.7344 706.141 47.8906L716.359 48.9688C723.578 49.625 727.188 52.5625 727.188 57.7812C727.188 60.0938 726.406 62.1719 724.844 64.0156C723.312 65.8906 721.203 67.375 718.516 68.4688C715.859 69.5625 712.859 70.1094 709.516 70.1094ZM710.031 43.8594C705.875 43.8594 702.484 42.7969 699.859 40.6719C697.234 38.5156 695.922 35.7656 695.922 32.4219C695.922 30.0156 696.547 27.875 697.797 26C699.047 24.0938 700.734 22.5938 702.859 21.5C705.016 20.4062 707.438 19.8594 710.125 19.8594C714.125 19.8594 717.422 21 720.016 23.2812C722.641 25.5625 723.953 28.4219 723.953 31.8594C723.953 35.2969 722.625 38.1562 719.969 40.4375C717.344 42.7188 714.031 43.8594 710.031 43.8594ZM710.5 40.3906C712.375 40.3906 713.875 39.6719 715 38.2344C716.125 36.7656 716.688 34.7969 716.688 32.3281C716.688 29.5781 716.078 27.375 714.859 25.7188C713.641 24.0625 712.031 23.2344 710.031 23.2344C708.156 23.2344 706.625 24.0312 705.438 25.625C704.25 27.1875 703.656 29.2188 703.656 31.7188C703.656 34.3125 704.281 36.4062 705.531 38C706.812 39.5938 708.469 40.3906 710.5 40.3906ZM728.406 25.7656L718.984 25.0156L716.125 21.875L728.406 20.6094V25.7656ZM731.312 53L731.125 50L736.141 48.875C736.203 48.625 736.266 47.9062 736.328 46.7188C736.422 45.5 736.484 43.6094 736.516 41.0469V35.7031C736.516 32.0781 736.312 29.125 735.906 26.8438L730.891 25.7656V23L742.609 20L744.062 21.2188C743.906 22.75 743.781 24.2812 743.688 25.8125C743.625 27.3438 743.594 29.1094 743.594 31.1094V40.625C743.594 42.7188 743.625 44.5312 743.688 46.0625C743.781 47.5625 743.906 48.5 744.062 48.875L749.078 50L748.844 53H731.312ZM740.172 12.2656C738.641 12.2656 737.391 11.7812 736.422 10.8125C735.453 9.84375 734.969 8.67188 734.969 7.29688C734.969 5.92188 735.453 4.75 736.422 3.78125C737.391 2.8125 738.641 2.32812 740.172 2.32812C741.672 2.32812 742.875 2.8125 743.781 3.78125C744.719 4.75 745.188 5.92188 745.188 7.29688C745.188 8.67188 744.719 9.84375 743.781 10.8125C742.875 11.7812 741.672 12.2656 740.172 12.2656ZM752.453 53L752.219 50.0938L756.906 48.875C756.969 48.5 757.031 47.7031 757.094 46.4844C757.188 45.2344 757.25 43.4219 757.281 41.0469L757.328 35.2812C757.328 33.6562 757.266 32.1094 757.141 30.6406C757.016 29.1719 756.859 27.9062 756.672 26.8438L751.844 25.7656V23L763 20L764.547 21.2656L764.125 25.3438L764.312 25.3906C767.625 21.7031 771.266 19.8594 775.234 19.8594C778.109 19.8594 780.641 20.9688 782.828 23.1875C785.047 25.375 786.156 28.6562 786.156 33.0312V41.1406C786.156 42.8906 786.188 44.5156 786.25 46.0156C786.344 47.4844 786.469 48.4375 786.625 48.875L791.266 50.0938L791.031 53H774.625L774.484 50.0938L778.844 48.875C778.906 48.3125 778.969 47.4062 779.031 46.1562C779.125 44.9062 779.172 43.3594 779.172 41.5156V33.9688C779.172 30.8125 778.422 28.5781 776.922 27.2656C775.422 25.9219 773.781 25.25 772 25.25C768.875 25.25 766.312 26.6406 764.312 29.4219V40.625C764.312 42.75 764.344 44.5469 764.406 46.0156C764.5 47.4844 764.594 48.4375 764.688 48.875L769.375 50.0938L769.141 53H752.453ZM811.562 53.5625C808.562 53.5625 805.859 52.8906 803.453 51.5469C801.078 50.2031 799.188 48.3125 797.781 45.875C796.406 43.4375 795.719 40.5781 795.719 37.2969C795.719 33.7656 796.469 30.6875 797.969 28.0625C799.469 25.4375 801.422 23.4062 803.828 21.9688C806.266 20.5312 808.875 19.8281 811.656 19.8594C815.812 19.8906 819 21.2344 821.219 23.8906C823.469 26.5156 824.594 30.0781 824.594 34.5781V36.0781H801.859V32.5625H818.875L817.891 33.8281V31.9531C817.891 29.2031 817.281 27.0781 816.062 25.5781C814.844 24.0781 813.172 23.3281 811.047 23.3281C808.984 23.3281 807.156 24.2344 805.562 26.0469C804 27.8281 803.219 30.5312 803.219 34.1562V35.2812C803.219 39.1875 804.203 42.2656 806.172 44.5156C808.172 46.7656 810.781 47.8906 814 47.8906C815.75 47.8906 817.312 47.5625 818.688 46.9062C820.062 46.25 821.406 45.125 822.719 43.5312L824.734 45.4062C823.297 48.1562 821.453 50.2031 819.203 51.5469C816.953 52.8906 814.406 53.5625 811.562 53.5625ZM846.062 53.5625C843.062 53.5625 840.359 52.8906 837.953 51.5469C835.578 50.2031 833.688 48.3125 832.281 45.875C830.906 43.4375 830.219 40.5781 830.219 37.2969C830.219 33.7656 830.969 30.6875 832.469 28.0625C833.969 25.4375 835.922 23.4062 838.328 21.9688C840.766 20.5312 843.375 19.8281 846.156 19.8594C850.312 19.8906 853.5 21.2344 855.719 23.8906C857.969 26.5156 859.094 30.0781 859.094 34.5781V36.0781H836.359V32.5625H853.375L852.391 33.8281V31.9531C852.391 29.2031 851.781 27.0781 850.562 25.5781C849.344 24.0781 847.672 23.3281 845.547 23.3281C843.484 23.3281 841.656 24.2344 840.062 26.0469C838.5 27.8281 837.719 30.5312 837.719 34.1562V35.2812C837.719 39.1875 838.703 42.2656 840.672 44.5156C842.672 46.7656 845.281 47.8906 848.5 47.8906C850.25 47.8906 851.812 47.5625 853.188 46.9062C854.562 46.25 855.906 45.125 857.219 43.5312L859.234 45.4062C857.797 48.1562 855.953 50.2031 853.703 51.5469C851.453 52.8906 848.906 53.5625 846.062 53.5625ZM863.781 53L863.594 50.0938L868.234 48.875C868.297 48.5312 868.359 47.7344 868.422 46.4844C868.516 45.2031 868.578 43.3906 868.609 41.0469L868.703 35.2812C868.703 33.6562 868.625 32.1094 868.469 30.6406C868.344 29.1719 868.188 27.9062 868 26.8438L863.219 25.7656V23L874.281 20L875.594 21.125L875.312 27.3125L875.547 27.3594C877.016 24.5469 878.516 22.6406 880.047 21.6406C881.578 20.6094 883.062 20.0938 884.5 20.0938C885.75 20.0938 886.781 20.4062 887.594 21.0312C888.438 21.6562 888.859 22.6094 888.859 23.8906C888.859 25.2344 888.406 26.2656 887.5 26.9844C886.625 27.7031 885.516 28.0625 884.172 28.0625C882.234 28.0625 880.438 27.2344 878.781 25.5781L880.375 25.9531C878.562 27.1094 876.969 29.1406 875.594 32.0469L875.688 38.6562C875.75 40.8438 875.812 42.9219 875.875 44.8906C875.969 46.8281 876.062 48.1562 876.156 48.875L882.672 49.9531L882.531 53H863.781Z" fill="white"/>
</svg>
