<svg width="664" height="24" viewBox="0 0 664 24" fill="none" xmlns="http://www.w3.org/2000/svg">
<path d="M20.3125 15.293H20.4648C20.9961 13.6914 21.4297 12.3477 21.7656 11.2617C22.1016 10.168 22.3633 9.27344 22.5508 8.57812C22.7461 7.88281 22.8867 7.33203 22.9727 6.92578C23.0664 6.51953 23.1211 6.20703 23.1367 5.98828C23.1602 5.76172 23.1719 5.57422 23.1719 5.42578C23.1719 4.73047 23.0977 4.10156 22.9492 3.53906C22.8086 2.96875 22.6836 2.50781 22.5742 2.15625L24.4727 1.34766C24.582 1.29297 24.6797 1.25781 24.7656 1.24219C24.8516 1.22656 24.9375 1.21875 25.0234 1.21875C25.3125 1.21875 25.5352 1.35547 25.6914 1.62891C25.8477 1.89453 25.9258 2.25391 25.9258 2.70703C25.9258 3.34766 25.793 4.21875 25.5273 5.32031C25.2695 6.42188 24.9062 7.66797 24.4375 9.05859C23.9766 10.4492 23.4375 11.9102 22.8203 13.4414C22.2031 14.9727 21.5352 16.4922 20.8164 18H19.3984C19.0312 18 18.7422 17.9375 18.5312 17.8125C18.3203 17.6797 18.1484 17.4219 18.0156 17.0391L14.8398 8.17969C14.6992 8.79688 14.4961 9.52344 14.2305 10.3594C13.9648 11.1875 13.6602 12.0586 13.3164 12.9727C12.9727 13.8789 12.6094 14.7695 12.2266 15.6445C11.8516 16.5117 11.4844 17.2969 11.125 18H9.63672C9.26172 18 8.97266 17.9375 8.76953 17.8125C8.56641 17.6797 8.39062 17.4219 8.24219 17.0391L3.20312 3.38672L1.14062 4.30078L0.753906 3.45703C1.01172 3.21484 1.36328 2.91797 1.80859 2.56641C2.25391 2.21484 2.71484 1.90234 3.19141 1.62891C3.66797 1.35547 4.08594 1.21875 4.44531 1.21875C4.6875 1.21875 4.92578 1.28125 5.16016 1.40625C5.40234 1.53125 5.57422 1.74219 5.67578 2.03906L10.5742 15.293H10.7148C11.0898 14.4258 11.4336 13.5117 11.7461 12.5508C12.0586 11.5898 12.3398 10.6484 12.5898 9.72656C12.8398 8.79688 13.0547 7.93359 13.2344 7.13672C13.4219 6.33984 13.5742 5.67188 13.6914 5.13281L13.5977 4.82812C13.2852 3.89062 13.0078 3.19922 12.7656 2.75391C12.5312 2.30078 12.3594 1.99219 12.25 1.82812C12.5156 1.60156 12.8242 1.44531 13.1758 1.35938C13.5273 1.26562 13.8359 1.21875 14.1016 1.21875C14.5156 1.21875 14.8438 1.28516 15.0859 1.41797C15.3281 1.55078 15.5273 1.84766 15.6836 2.30859L20.3125 15.293ZM28.0469 12C28.0469 10.7578 28.3086 9.66016 28.832 8.70703C29.3633 7.74609 30.1211 6.99609 31.1055 6.45703C32.0977 5.91016 33.2852 5.63672 34.668 5.63672C35.707 5.63672 36.5977 5.85156 37.3398 6.28125C38.0898 6.71094 38.6641 7.27344 39.0625 7.96875C39.4609 8.66406 39.6602 9.41406 39.6602 10.2188C39.6602 10.5859 39.6133 10.9531 39.5195 11.3203C39.4258 11.6875 39.2461 11.9922 38.9805 12.2344C38.7227 12.4766 38.332 12.5977 37.8086 12.5977H30.8008C30.957 14.0039 31.5117 15.082 32.4648 15.832C33.418 16.5742 34.582 16.9453 35.957 16.9453C36.918 16.9453 37.918 16.7773 38.957 16.4414L39.3438 17.2266C38.7109 17.6562 37.9883 17.9688 37.1758 18.1641C36.3633 18.3594 35.5664 18.457 34.7852 18.457C33.9258 18.457 33.0938 18.3203 32.2891 18.0469C31.4844 17.7812 30.7617 17.3789 30.1211 16.8398C29.4883 16.3008 28.9844 15.6289 28.6094 14.8242C28.2344 14.0195 28.0469 13.0781 28.0469 12ZM36.8477 11.1562C36.8945 11 36.9258 10.8438 36.9414 10.6875C36.957 10.5312 36.9648 10.3672 36.9648 10.1953C36.9648 9.67969 36.8516 9.17188 36.625 8.67188C36.4062 8.17188 36.0781 7.75781 35.6406 7.42969C35.2109 7.10156 34.6797 6.9375 34.0469 6.9375C33.25 6.9375 32.6172 7.13672 32.1484 7.53516C31.6875 7.92578 31.3516 8.44141 31.1406 9.08203C30.9375 9.72266 30.8164 10.4141 30.7773 11.1562H36.8477ZM49.0703 9.77344C49.0703 7.97656 49.3984 6.42578 50.0547 5.12109C50.7109 3.80859 51.6836 2.79688 52.9727 2.08594C54.2617 1.36719 55.8555 1.00781 57.7539 1.00781C58.1914 1.00781 58.7031 1.03516 59.2891 1.08984C59.875 1.13672 60.4453 1.21875 61 1.33594C61.5625 1.45312 62.0273 1.60937 62.3945 1.80469C62.7617 2 62.9453 2.24609 62.9453 2.54297C62.9453 2.68359 62.8984 2.83594 62.8047 3L61.8203 4.65234C61.4766 4.45703 61.0508 4.19531 60.543 3.86719C60.0352 3.53906 59.4688 3.24219 58.8438 2.97656C58.2188 2.70313 57.5547 2.56641 56.8516 2.56641C55.9297 2.56641 55.1602 2.78125 54.543 3.21094C53.9336 3.63281 53.4492 4.19141 53.0898 4.88672C52.7383 5.57422 52.4883 6.32422 52.3398 7.13672C52.1914 7.94922 52.1172 8.73828 52.1172 9.50391C52.1172 10.7617 52.3438 11.9336 52.7969 13.0195C53.2578 14.1055 53.9492 14.9844 54.8711 15.6562C55.793 16.3203 56.9492 16.6523 58.3398 16.6523C58.918 16.6523 59.4922 16.6055 60.0625 16.5117C60.6406 16.4102 61.1641 16.293 61.6328 16.1602C62.1016 16.0273 62.4766 15.9141 62.7578 15.8203C63.0391 15.7188 63.1797 15.668 63.1797 15.668L63.6602 16.582C62.7852 17.2695 61.8125 17.7539 60.7422 18.0352C59.6797 18.3164 58.5898 18.457 57.4727 18.457C55.7617 18.457 54.2773 18.1055 53.0195 17.4023C51.7617 16.6914 50.7891 15.6875 50.1016 14.3906C49.4141 13.0859 49.0703 11.5469 49.0703 9.77344ZM65.0781 6.31641C65.2969 6.21484 65.625 6.12891 66.0625 6.05859C66.5 5.98828 66.9727 5.93359 67.4805 5.89453C67.9883 5.85547 68.4453 5.83594 68.8516 5.83594C69.1719 5.83594 69.418 5.86328 69.5898 5.91797C69.7695 5.96484 69.8594 6.14453 69.8594 6.45703V9.26953L71.3477 7.14844C72.0508 6.14062 72.9844 5.63672 74.1484 5.63672C74.2891 5.63672 74.4688 5.65234 74.6875 5.68359C74.9141 5.70703 75.1172 5.76562 75.2969 5.85938C75.4766 5.95312 75.5664 6.09766 75.5664 6.29297C75.5664 6.37109 75.5586 6.43359 75.543 6.48047L75.0391 8.13281C74.7422 8.03906 74.4727 7.97266 74.2305 7.93359C73.9961 7.89453 73.7773 7.875 73.5742 7.875C73.1523 7.875 72.75 7.99219 72.3672 8.22656C71.9844 8.46094 71.6328 8.74609 71.3125 9.08203C70.9922 9.41797 70.707 9.75 70.457 10.0781C70.2148 10.3984 70.0156 10.6484 69.8594 10.8281V14.4727C69.8594 15.4336 69.9023 16.1797 69.9883 16.7109C70.0742 17.2422 70.1406 17.6172 70.1875 17.8359C69.9766 17.9531 69.707 18.043 69.3789 18.1055C69.0508 18.1758 68.7617 18.2109 68.5117 18.2109C68.1133 18.2109 67.7852 18.1328 67.5273 17.9766C67.2695 17.8125 67.1406 17.5156 67.1406 17.0859V7.19531H65.0781V6.31641ZM77.125 12C77.125 10.7578 77.3867 9.66016 77.9102 8.70703C78.4414 7.74609 79.1992 6.99609 80.1836 6.45703C81.1758 5.91016 82.3633 5.63672 83.7461 5.63672C84.7852 5.63672 85.6758 5.85156 86.418 6.28125C87.168 6.71094 87.7422 7.27344 88.1406 7.96875C88.5391 8.66406 88.7383 9.41406 88.7383 10.2188C88.7383 10.5859 88.6914 10.9531 88.5977 11.3203C88.5039 11.6875 88.3242 11.9922 88.0586 12.2344C87.8008 12.4766 87.4102 12.5977 86.8867 12.5977H79.8789C80.0352 14.0039 80.5898 15.082 81.543 15.832C82.4961 16.5742 83.6602 16.9453 85.0352 16.9453C85.9961 16.9453 86.9961 16.7773 88.0352 16.4414L88.4219 17.2266C87.7891 17.6562 87.0664 17.9688 86.2539 18.1641C85.4414 18.3594 84.6445 18.457 83.8633 18.457C83.0039 18.457 82.1719 18.3203 81.3672 18.0469C80.5625 17.7812 79.8398 17.3789 79.1992 16.8398C78.5664 16.3008 78.0625 15.6289 77.6875 14.8242C77.3125 14.0195 77.125 13.0781 77.125 12ZM85.9258 11.1562C85.9727 11 86.0039 10.8438 86.0195 10.6875C86.0352 10.5312 86.043 10.3672 86.043 10.1953C86.043 9.67969 85.9297 9.17188 85.7031 8.67188C85.4844 8.17188 85.1562 7.75781 84.7188 7.42969C84.2891 7.10156 83.7578 6.9375 83.125 6.9375C82.3281 6.9375 81.6953 7.13672 81.2266 7.53516C80.7656 7.92578 80.4297 8.44141 80.2188 9.08203C80.0156 9.72266 79.8945 10.4141 79.8555 11.1562H85.9258ZM99.1797 16.9688C99.1797 16.9609 99.0664 17.0273 98.8398 17.168C98.6211 17.3086 98.3203 17.4727 97.9375 17.6602C97.5625 17.8477 97.1445 18.0117 96.6836 18.1523C96.2227 18.293 95.75 18.3633 95.2656 18.3633C94.5859 18.3633 93.957 18.2422 93.3789 18C92.8008 17.75 92.3359 17.3672 91.9844 16.8516C91.6328 16.3281 91.457 15.6641 91.457 14.8594C91.457 13.9609 91.7148 13.2422 92.2305 12.7031C92.7539 12.1641 93.4727 11.7773 94.3867 11.543C95.3008 11.3008 96.3477 11.1797 97.5273 11.1797H99.1797V10.3008C99.1797 9.69141 99.1406 9.125 99.0625 8.60156C98.9844 8.07812 98.8125 7.66016 98.5469 7.34766C98.2891 7.02734 97.8828 6.86719 97.3281 6.86719C96.8047 6.86719 96.2734 6.98828 95.7344 7.23047C95.2031 7.47266 94.6953 7.76562 94.2109 8.10938C93.7266 8.45312 93.2891 8.78125 92.8984 9.09375L91.9375 7.80469C91.8203 7.66406 91.7617 7.51953 91.7617 7.37109C91.7617 7.11328 91.9219 6.87891 92.2422 6.66797C92.5625 6.45703 92.9727 6.27344 93.4727 6.11719C93.9727 5.96094 94.5 5.84375 95.0547 5.76562C95.6172 5.67969 96.1367 5.63672 96.6133 5.63672C97.5742 5.63672 98.4531 5.79297 99.25 6.10547C100.055 6.41016 100.695 6.90625 101.172 7.59375C101.656 8.27344 101.898 9.17578 101.898 10.3008V16.8281H103.938V17.707C103.672 17.8555 103.234 17.9766 102.625 18.0703C102.016 18.1641 101.426 18.2109 100.855 18.2109C100.473 18.2109 100.102 18.1445 99.7422 18.0117C99.3906 17.8867 99.2031 17.5781 99.1797 17.0859V16.9688ZM96.0859 16.6289C96.3594 16.6289 96.6719 16.5938 97.0234 16.5234C97.375 16.4531 97.7148 16.3711 98.043 16.2773C98.3711 16.1758 98.6406 16.0898 98.8516 16.0195C99.0703 15.9492 99.1797 15.9141 99.1797 15.9141V12.6211H97.2109C96.8203 12.6211 96.3828 12.6758 95.8984 12.7852C95.4219 12.8867 95.0078 13.0898 94.6562 13.3945C94.3125 13.6914 94.1406 14.1367 94.1406 14.7305C94.1406 15.2852 94.3086 15.7422 94.6445 16.1016C94.9805 16.4531 95.4609 16.6289 96.0859 16.6289ZM114.824 17.1797C114.277 17.5156 113.715 17.7969 113.137 18.0234C112.566 18.25 111.844 18.3633 110.969 18.3633C109.828 18.3633 108.926 18.0234 108.262 17.3438C107.598 16.6641 107.266 15.7227 107.266 14.5195V7.44141H104.84V6.91406C104.84 6.5625 104.914 6.32422 105.062 6.19922C105.219 6.06641 105.465 6 105.801 6H107.266V3.21094C107.266 2.78125 107.395 2.49219 107.652 2.34375C107.91 2.1875 108.238 2.10938 108.637 2.10938C108.887 2.10938 109.176 2.14063 109.504 2.20312C109.832 2.25781 110.102 2.34766 110.312 2.47266C110.266 2.69141 110.199 3.07031 110.113 3.60938C110.027 4.14844 109.984 4.94531 109.984 6H114.062V6.50391C114.062 6.84766 113.984 7.08984 113.828 7.23047C113.68 7.37109 113.438 7.44141 113.102 7.44141H109.984V14.3086C109.984 16.082 110.633 16.9688 111.93 16.9688C112.32 16.9688 112.711 16.9141 113.102 16.8047C113.492 16.6953 113.816 16.5898 114.074 16.4883C114.332 16.3867 114.457 16.3477 114.449 16.3711L114.824 17.1797ZM116.078 12C116.078 10.7578 116.34 9.66016 116.863 8.70703C117.395 7.74609 118.152 6.99609 119.137 6.45703C120.129 5.91016 121.316 5.63672 122.699 5.63672C123.738 5.63672 124.629 5.85156 125.371 6.28125C126.121 6.71094 126.695 7.27344 127.094 7.96875C127.492 8.66406 127.691 9.41406 127.691 10.2188C127.691 10.5859 127.645 10.9531 127.551 11.3203C127.457 11.6875 127.277 11.9922 127.012 12.2344C126.754 12.4766 126.363 12.5977 125.84 12.5977H118.832C118.988 14.0039 119.543 15.082 120.496 15.832C121.449 16.5742 122.613 16.9453 123.988 16.9453C124.949 16.9453 125.949 16.7773 126.988 16.4414L127.375 17.2266C126.742 17.6562 126.02 17.9688 125.207 18.1641C124.395 18.3594 123.598 18.457 122.816 18.457C121.957 18.457 121.125 18.3203 120.32 18.0469C119.516 17.7812 118.793 17.3789 118.152 16.8398C117.52 16.3008 117.016 15.6289 116.641 14.8242C116.266 14.0195 116.078 13.0781 116.078 12ZM124.879 11.1562C124.926 11 124.957 10.8438 124.973 10.6875C124.988 10.5312 124.996 10.3672 124.996 10.1953C124.996 9.67969 124.883 9.17188 124.656 8.67188C124.438 8.17188 124.109 7.75781 123.672 7.42969C123.242 7.10156 122.711 6.9375 122.078 6.9375C121.281 6.9375 120.648 7.13672 120.18 7.53516C119.719 7.92578 119.383 8.44141 119.172 9.08203C118.969 9.72266 118.848 10.4141 118.809 11.1562H124.879ZM145.703 11.7656C145.703 12.8984 145.707 13.8164 145.715 14.5195C145.73 15.2148 145.75 15.7656 145.773 16.1719C145.805 16.5703 145.844 16.8906 145.891 17.1328C145.938 17.3672 145.996 17.5938 146.066 17.8125C145.84 17.9375 145.562 18.0352 145.234 18.1055C144.914 18.1758 144.621 18.2109 144.355 18.2109C143.949 18.2109 143.613 18.1289 143.348 17.9648C143.082 17.793 142.949 17.4844 142.949 17.0391V12.1406L137.617 3.31641L135.555 4.21875L135.168 3.38672C135.355 3.20703 135.605 2.99609 135.918 2.75391C136.23 2.51172 136.57 2.27344 136.938 2.03906C137.312 1.80469 137.676 1.60937 138.027 1.45312C138.387 1.29688 138.699 1.21875 138.965 1.21875C139.145 1.21875 139.32 1.27344 139.492 1.38281C139.672 1.49219 139.848 1.67969 140.02 1.94531L144.988 10.125H145.035C145.41 9.46875 145.777 8.8125 146.137 8.15625C146.504 7.5 146.805 6.83984 147.039 6.17578C147.281 5.50391 147.402 4.82812 147.402 4.14844C147.402 3.8125 147.359 3.47656 147.273 3.14062C147.188 2.80469 147.074 2.46875 146.934 2.13281L148.773 1.34766C148.883 1.29297 148.98 1.25781 149.066 1.24219C149.16 1.22656 149.246 1.21875 149.324 1.21875C149.629 1.21875 149.852 1.34375 149.992 1.59375C150.141 1.83594 150.215 2.16016 150.215 2.56641C150.215 3.30859 150.008 4.16406 149.594 5.13281C149.18 6.10156 148.629 7.14844 147.941 8.27344C147.262 9.39062 146.516 10.5547 145.703 11.7656ZM164.664 12.0234C164.664 13.2969 164.375 14.4102 163.797 15.3633C163.227 16.3086 162.457 17.0469 161.488 17.5781C160.52 18.1016 159.438 18.3633 158.242 18.3633C157.039 18.3633 155.949 18.0977 154.973 17.5664C153.996 17.0352 153.219 16.2969 152.641 15.3516C152.07 14.3984 151.785 13.2891 151.785 12.0234C151.785 10.7422 152.07 9.625 152.641 8.67188C153.219 7.71094 153.996 6.96484 154.973 6.43359C155.949 5.90234 157.039 5.63672 158.242 5.63672C159.445 5.63672 160.531 5.90234 161.5 6.43359C162.469 6.96484 163.238 7.71094 163.809 8.67188C164.379 9.625 164.664 10.7422 164.664 12.0234ZM154.68 12C154.68 12.8828 154.777 13.7148 154.973 14.4961C155.168 15.2773 155.523 15.9102 156.039 16.3945C156.555 16.8711 157.289 17.1094 158.242 17.1094C159.195 17.1094 159.926 16.8711 160.434 16.3945C160.941 15.9102 161.289 15.2773 161.477 14.4961C161.672 13.7148 161.77 12.8828 161.77 12C161.77 11.1094 161.672 10.2773 161.477 9.50391C161.289 8.72266 160.941 8.09375 160.434 7.61719C159.926 7.13281 159.195 6.89062 158.242 6.89062C157.289 6.89062 156.555 7.13281 156.039 7.61719C155.523 8.09375 155.168 8.72266 154.973 9.50391C154.777 10.2773 154.68 11.1094 154.68 12ZM174.941 7.125V6.23438C175.16 6.14062 175.488 6.05859 175.926 5.98828C176.363 5.91797 176.836 5.86328 177.344 5.82422C177.852 5.78516 178.309 5.76562 178.715 5.76562C179.035 5.76562 179.281 5.79297 179.453 5.84766C179.633 5.89453 179.723 6.07422 179.723 6.38672V16.8281H181.762V17.707C181.496 17.8555 181.059 17.9766 180.449 18.0703C179.84 18.1641 179.254 18.2109 178.691 18.2109C178.215 18.2109 177.812 18.1406 177.484 18C177.164 17.8672 177.004 17.5625 177.004 17.0859V16.9922C177.004 16.9766 176.855 17.0391 176.559 17.1797C176.27 17.3125 175.883 17.4727 175.398 17.6602C174.922 17.8477 174.398 18.0117 173.828 18.1523C173.266 18.293 172.711 18.3633 172.164 18.3633C171.227 18.3633 170.52 18.2031 170.043 17.8828C169.566 17.5625 169.242 17.1211 169.07 16.5586C168.906 15.9961 168.824 15.3555 168.824 14.6367V7.125H166.762V6.23438C166.98 6.14062 167.309 6.05859 167.746 5.98828C168.184 5.91797 168.652 5.86328 169.152 5.82422C169.66 5.78516 170.117 5.76562 170.523 5.76562C170.852 5.76562 171.102 5.79297 171.273 5.84766C171.445 5.89453 171.531 6.07422 171.531 6.38672V14.4023C171.531 15.1914 171.637 15.7617 171.848 16.1133C172.059 16.457 172.5 16.6289 173.172 16.6289C173.469 16.6289 173.832 16.5938 174.262 16.5234C174.699 16.4531 175.125 16.375 175.539 16.2891C175.961 16.1953 176.312 16.1133 176.594 16.043C176.875 15.9727 177.012 15.9375 177.004 15.9375V7.125H174.941ZM183.344 6.31641C183.562 6.21484 183.891 6.12891 184.328 6.05859C184.766 5.98828 185.238 5.93359 185.746 5.89453C186.254 5.85547 186.711 5.83594 187.117 5.83594C187.438 5.83594 187.684 5.86328 187.855 5.91797C188.035 5.96484 188.125 6.14453 188.125 6.45703V9.26953L189.613 7.14844C190.316 6.14062 191.25 5.63672 192.414 5.63672C192.555 5.63672 192.734 5.65234 192.953 5.68359C193.18 5.70703 193.383 5.76562 193.562 5.85938C193.742 5.95312 193.832 6.09766 193.832 6.29297C193.832 6.37109 193.824 6.43359 193.809 6.48047L193.305 8.13281C193.008 8.03906 192.738 7.97266 192.496 7.93359C192.262 7.89453 192.043 7.875 191.84 7.875C191.418 7.875 191.016 7.99219 190.633 8.22656C190.25 8.46094 189.898 8.74609 189.578 9.08203C189.258 9.41797 188.973 9.75 188.723 10.0781C188.48 10.3984 188.281 10.6484 188.125 10.8281V14.4727C188.125 15.4336 188.168 16.1797 188.254 16.7109C188.34 17.2422 188.406 17.6172 188.453 17.8359C188.242 17.9531 187.973 18.043 187.645 18.1055C187.316 18.1758 187.027 18.2109 186.777 18.2109C186.379 18.2109 186.051 18.1328 185.793 17.9766C185.535 17.8125 185.406 17.5156 185.406 17.0859V7.19531H183.344V6.31641ZM203.77 2.68359H201.508V1.75781C201.75 1.63281 202.199 1.51172 202.855 1.39453C203.512 1.27734 204.223 1.21875 204.988 1.21875C205.613 1.21875 206.023 1.25391 206.219 1.32422C206.422 1.38672 206.523 1.55469 206.523 1.82812V16.6523H208.738V17.6602C208.465 17.8086 208.004 17.9375 207.355 18.0469C206.707 18.1562 206.07 18.2109 205.445 18.2109C204.969 18.2109 204.57 18.1406 204.25 18C203.93 17.8672 203.77 17.5625 203.77 17.0859V2.68359ZM222.871 14.4727C222.871 15.4336 222.914 16.1797 223 16.7109C223.094 17.2422 223.164 17.6172 223.211 17.8359C222.992 17.9531 222.719 18.043 222.391 18.1055C222.07 18.1758 221.785 18.2109 221.535 18.2109C221.137 18.2109 220.809 18.1328 220.551 17.9766C220.293 17.8125 220.164 17.5156 220.164 17.0859V9.43359C220.164 8.79297 220.094 8.29297 219.953 7.93359C219.82 7.57422 219.434 7.39453 218.793 7.39453C218.48 7.39453 218.113 7.42969 217.691 7.5C217.277 7.5625 216.871 7.64062 216.473 7.73438C216.082 7.82031 215.758 7.89844 215.5 7.96875C215.242 8.03125 215.117 8.0625 215.125 8.0625V14.4727C215.125 15.4336 215.168 16.1797 215.254 16.7109C215.34 17.2422 215.406 17.6172 215.453 17.8359C215.242 17.9531 214.973 18.043 214.645 18.1055C214.316 18.1758 214.027 18.2109 213.777 18.2109C213.379 18.2109 213.051 18.1328 212.793 17.9766C212.535 17.8125 212.406 17.5156 212.406 17.0859V7.17188H210.344V6.29297C210.562 6.19141 210.891 6.10547 211.328 6.03516C211.766 5.96484 212.238 5.91016 212.746 5.87109C213.254 5.83203 213.711 5.8125 214.117 5.8125C214.438 5.8125 214.684 5.83984 214.855 5.89453C215.035 5.94141 215.125 6.12109 215.125 6.43359V7.00781C215.125 7.01562 215.27 6.95312 215.559 6.82031C215.855 6.6875 216.242 6.52734 216.719 6.33984C217.203 6.15234 217.727 5.98828 218.289 5.84766C218.852 5.70703 219.402 5.63672 219.941 5.63672C220.488 5.63672 221.008 5.73047 221.5 5.91797C221.992 6.10547 222.34 6.46875 222.543 7.00781C222.543 7.01562 222.691 6.95312 222.988 6.82031C223.293 6.6875 223.688 6.52734 224.172 6.33984C224.656 6.15234 225.184 5.98828 225.754 5.84766C226.324 5.70703 226.883 5.63672 227.43 5.63672C228.352 5.63672 229.039 5.79297 229.492 6.10547C229.953 6.41016 230.258 6.83594 230.406 7.38281C230.555 7.92188 230.629 8.55078 230.629 9.26953V16.8281H232.668V17.707C232.402 17.8555 231.965 17.9766 231.355 18.0703C230.746 18.1641 230.16 18.2109 229.598 18.2109C229.121 18.2109 228.719 18.1406 228.391 18C228.07 17.8672 227.91 17.5625 227.91 17.0859V9.43359C227.91 8.79297 227.84 8.29297 227.699 7.93359C227.566 7.57422 227.184 7.39453 226.551 7.39453C226.355 7.39453 226.082 7.41797 225.73 7.46484C225.379 7.51172 225.008 7.57031 224.617 7.64062C224.227 7.71094 223.867 7.78125 223.539 7.85156C223.211 7.92188 222.965 7.97656 222.801 8.01562C222.848 8.39844 222.871 8.81641 222.871 9.26953V14.4727ZM242.523 16.9688C242.523 16.9609 242.41 17.0273 242.184 17.168C241.965 17.3086 241.664 17.4727 241.281 17.6602C240.906 17.8477 240.488 18.0117 240.027 18.1523C239.566 18.293 239.094 18.3633 238.609 18.3633C237.93 18.3633 237.301 18.2422 236.723 18C236.145 17.75 235.68 17.3672 235.328 16.8516C234.977 16.3281 234.801 15.6641 234.801 14.8594C234.801 13.9609 235.059 13.2422 235.574 12.7031C236.098 12.1641 236.816 11.7773 237.73 11.543C238.645 11.3008 239.691 11.1797 240.871 11.1797H242.523V10.3008C242.523 9.69141 242.484 9.125 242.406 8.60156C242.328 8.07812 242.156 7.66016 241.891 7.34766C241.633 7.02734 241.227 6.86719 240.672 6.86719C240.148 6.86719 239.617 6.98828 239.078 7.23047C238.547 7.47266 238.039 7.76562 237.555 8.10938C237.07 8.45312 236.633 8.78125 236.242 9.09375L235.281 7.80469C235.164 7.66406 235.105 7.51953 235.105 7.37109C235.105 7.11328 235.266 6.87891 235.586 6.66797C235.906 6.45703 236.316 6.27344 236.816 6.11719C237.316 5.96094 237.844 5.84375 238.398 5.76562C238.961 5.67969 239.48 5.63672 239.957 5.63672C240.918 5.63672 241.797 5.79297 242.594 6.10547C243.398 6.41016 244.039 6.90625 244.516 7.59375C245 8.27344 245.242 9.17578 245.242 10.3008V16.8281H247.281V17.707C247.016 17.8555 246.578 17.9766 245.969 18.0703C245.359 18.1641 244.77 18.2109 244.199 18.2109C243.816 18.2109 243.445 18.1445 243.086 18.0117C242.734 17.8867 242.547 17.5781 242.523 17.0859V16.9688ZM239.43 16.6289C239.703 16.6289 240.016 16.5938 240.367 16.5234C240.719 16.4531 241.059 16.3711 241.387 16.2773C241.715 16.1758 241.984 16.0898 242.195 16.0195C242.414 15.9492 242.523 15.9141 242.523 15.9141V12.6211H240.555C240.164 12.6211 239.727 12.6758 239.242 12.7852C238.766 12.8867 238.352 13.0898 238 13.3945C237.656 13.6914 237.484 14.1367 237.484 14.7305C237.484 15.2852 237.652 15.7422 237.988 16.1016C238.324 16.4531 238.805 16.6289 239.43 16.6289ZM250.445 19.582C251.023 20.4492 251.715 21.1211 252.52 21.5977C253.332 22.082 254.328 22.3242 255.508 22.3242C255.812 22.3242 256.156 22.3008 256.539 22.2539C256.922 22.207 257.289 22.1172 257.641 21.9844C257.992 21.8594 258.281 21.6758 258.508 21.4336C258.742 21.1914 258.859 20.8789 258.859 20.4961C258.859 20.1523 258.695 19.8828 258.367 19.6875C258.039 19.4922 257.602 19.3398 257.055 19.2305C256.516 19.1211 255.922 19.0234 255.273 18.9375C254.625 18.8594 253.977 18.7617 253.328 18.6445C252.68 18.5273 252.082 18.3633 251.535 18.1523C250.996 17.9492 250.562 17.668 250.234 17.3086C249.906 16.9414 249.742 16.4688 249.742 15.8906C249.742 15.4688 249.84 15.1367 250.035 14.8945C250.23 14.6445 250.469 14.4414 250.75 14.2852C251.031 14.1289 251.297 13.9844 251.547 13.8516C250.859 13.4609 250.316 12.9492 249.918 12.3164C249.527 11.6836 249.332 10.9531 249.332 10.125C249.332 9.19531 249.574 8.39844 250.059 7.73438C250.551 7.0625 251.215 6.54688 252.051 6.1875C252.887 5.82031 253.828 5.63672 254.875 5.63672C255.859 5.63672 256.754 5.80469 257.559 6.14062C258.371 6.46875 259.023 6.93359 259.516 7.53516L260.207 6.66797C260.723 6.03516 261.152 5.625 261.496 5.4375C261.84 5.25 262.227 5.15625 262.656 5.15625C262.859 5.15625 263.094 5.21875 263.359 5.34375C263.625 5.46094 263.758 5.65625 263.758 5.92969V7.51172C263.039 7.51172 262.457 7.52344 262.012 7.54688C261.574 7.57031 261.207 7.64844 260.91 7.78125C260.621 7.90625 260.332 8.12109 260.043 8.42578C260.16 8.69141 260.25 8.96094 260.312 9.23438C260.383 9.50781 260.418 9.8125 260.418 10.1484C260.418 11.0703 260.176 11.8672 259.691 12.5391C259.207 13.2109 258.547 13.7305 257.711 14.0977C256.875 14.457 255.93 14.6367 254.875 14.6367C254.062 14.6367 253.297 14.5273 252.578 14.3086C251.938 14.6367 251.617 14.9805 251.617 15.3398C251.617 15.6992 251.793 15.9688 252.145 16.1484C252.496 16.3203 252.961 16.4492 253.539 16.5352C254.117 16.6133 254.75 16.6836 255.438 16.7461C256.133 16.8008 256.828 16.8789 257.523 16.9805C258.219 17.082 258.855 17.2461 259.434 17.4727C260.012 17.6914 260.477 18.0039 260.828 18.4102C261.18 18.8242 261.355 19.375 261.355 20.0625C261.355 20.8906 261.055 21.5781 260.453 22.125C259.859 22.6797 259.09 23.0898 258.145 23.3555C257.199 23.6289 256.207 23.7656 255.168 23.7656C254.348 23.7656 253.531 23.6875 252.719 23.5312C251.906 23.3828 251.16 23.1758 250.48 22.9102C249.809 22.6523 249.27 22.3555 248.863 22.0195C248.457 21.6836 248.254 21.3281 248.254 20.9531C248.254 20.7266 248.422 20.5117 248.758 20.3086C249.102 20.1133 249.664 19.8711 250.445 19.582ZM252.098 10.125C252.098 11.1641 252.324 11.9805 252.777 12.5742C253.23 13.168 253.93 13.4648 254.875 13.4648C255.828 13.4648 256.531 13.168 256.984 12.5742C257.438 11.9805 257.664 11.1641 257.664 10.125C257.664 9.07812 257.438 8.26562 256.984 7.6875C256.531 7.10938 255.828 6.82031 254.875 6.82031C253.93 6.82031 253.23 7.10938 252.777 7.6875C252.324 8.26562 252.098 9.07812 252.098 10.125ZM267.039 1.92188C267.039 1.47656 267.199 1.10156 267.52 0.796875C267.848 0.492188 268.238 0.339844 268.691 0.339844C269.152 0.339844 269.543 0.492188 269.863 0.796875C270.184 1.10156 270.344 1.47656 270.344 1.92188C270.344 2.35156 270.184 2.71875 269.863 3.02344C269.543 3.32812 269.152 3.48047 268.691 3.48047C268.238 3.48047 267.848 3.32812 267.52 3.02344C267.199 2.71875 267.039 2.35156 267.039 1.92188ZM270.039 16.8281H272.078V17.707C271.812 17.8555 271.375 17.9766 270.766 18.0703C270.156 18.1641 269.57 18.2109 269.008 18.2109C268.531 18.2109 268.129 18.1406 267.801 18C267.48 17.8672 267.32 17.5625 267.32 17.0859V7.14844H265.258V6.26953C265.477 6.16797 265.805 6.08203 266.242 6.01172C266.68 5.94141 267.152 5.88672 267.66 5.84766C268.168 5.80859 268.625 5.78906 269.031 5.78906C269.352 5.78906 269.598 5.81641 269.77 5.87109C269.949 5.91797 270.039 6.09766 270.039 6.41016V16.8281ZM275.711 7.17188H273.648V6.29297C273.867 6.19141 274.195 6.10547 274.633 6.03516C275.07 5.96484 275.543 5.91016 276.051 5.87109C276.559 5.83203 277.016 5.8125 277.422 5.8125C277.742 5.8125 277.988 5.83984 278.16 5.89453C278.34 5.94141 278.43 6.12109 278.43 6.43359V7.00781C278.586 6.95312 278.914 6.81641 279.414 6.59766C279.914 6.37109 280.512 6.15625 281.207 5.95312C281.91 5.74219 282.633 5.63672 283.375 5.63672C284.281 5.63672 284.965 5.80078 285.426 6.12891C285.887 6.44922 286.199 6.89062 286.363 7.45312C286.527 8.00781 286.609 8.64453 286.609 9.36328V16.8281H288.648V17.707C288.383 17.8555 287.945 17.9766 287.336 18.0703C286.727 18.1641 286.141 18.2109 285.578 18.2109C285.102 18.2109 284.703 18.1406 284.383 18C284.062 17.8672 283.902 17.5625 283.902 17.0859V9.59766C283.902 8.80859 283.797 8.24219 283.586 7.89844C283.375 7.54688 282.934 7.37109 282.262 7.37109C281.941 7.37109 281.57 7.40625 281.148 7.47656C280.734 7.53906 280.324 7.61328 279.918 7.69922C279.52 7.78516 279.18 7.86328 278.898 7.93359C278.625 8.00391 278.469 8.04688 278.43 8.0625V14.4727C278.43 15.4336 278.473 16.1797 278.559 16.7109C278.645 17.2422 278.711 17.6172 278.758 17.8359C278.547 17.9531 278.277 18.043 277.949 18.1055C277.621 18.1758 277.332 18.2109 277.082 18.2109C276.684 18.2109 276.355 18.1328 276.098 17.9766C275.84 17.8125 275.711 17.5156 275.711 17.0859V7.17188ZM298.492 16.9688C298.492 16.9609 298.379 17.0273 298.152 17.168C297.934 17.3086 297.633 17.4727 297.25 17.6602C296.875 17.8477 296.457 18.0117 295.996 18.1523C295.535 18.293 295.062 18.3633 294.578 18.3633C293.898 18.3633 293.27 18.2422 292.691 18C292.113 17.75 291.648 17.3672 291.297 16.8516C290.945 16.3281 290.77 15.6641 290.77 14.8594C290.77 13.9609 291.027 13.2422 291.543 12.7031C292.066 12.1641 292.785 11.7773 293.699 11.543C294.613 11.3008 295.66 11.1797 296.84 11.1797H298.492V10.3008C298.492 9.69141 298.453 9.125 298.375 8.60156C298.297 8.07812 298.125 7.66016 297.859 7.34766C297.602 7.02734 297.195 6.86719 296.641 6.86719C296.117 6.86719 295.586 6.98828 295.047 7.23047C294.516 7.47266 294.008 7.76562 293.523 8.10938C293.039 8.45312 292.602 8.78125 292.211 9.09375L291.25 7.80469C291.133 7.66406 291.074 7.51953 291.074 7.37109C291.074 7.11328 291.234 6.87891 291.555 6.66797C291.875 6.45703 292.285 6.27344 292.785 6.11719C293.285 5.96094 293.812 5.84375 294.367 5.76562C294.93 5.67969 295.449 5.63672 295.926 5.63672C296.887 5.63672 297.766 5.79297 298.562 6.10547C299.367 6.41016 300.008 6.90625 300.484 7.59375C300.969 8.27344 301.211 9.17578 301.211 10.3008V16.8281H303.25V17.707C302.984 17.8555 302.547 17.9766 301.938 18.0703C301.328 18.1641 300.738 18.2109 300.168 18.2109C299.785 18.2109 299.414 18.1445 299.055 18.0117C298.703 17.8867 298.516 17.5781 298.492 17.0859V16.9688ZM295.398 16.6289C295.672 16.6289 295.984 16.5938 296.336 16.5234C296.688 16.4531 297.027 16.3711 297.355 16.2773C297.684 16.1758 297.953 16.0898 298.164 16.0195C298.383 15.9492 298.492 15.9141 298.492 15.9141V12.6211H296.523C296.133 12.6211 295.695 12.6758 295.211 12.7852C294.734 12.8867 294.32 13.0898 293.969 13.3945C293.625 13.6914 293.453 14.1367 293.453 14.7305C293.453 15.2852 293.621 15.7422 293.957 16.1016C294.293 16.4531 294.773 16.6289 295.398 16.6289ZM314.137 17.1797C313.59 17.5156 313.027 17.7969 312.449 18.0234C311.879 18.25 311.156 18.3633 310.281 18.3633C309.141 18.3633 308.238 18.0234 307.574 17.3438C306.91 16.6641 306.578 15.7227 306.578 14.5195V7.44141H304.152V6.91406C304.152 6.5625 304.227 6.32422 304.375 6.19922C304.531 6.06641 304.777 6 305.113 6H306.578V3.21094C306.578 2.78125 306.707 2.49219 306.965 2.34375C307.223 2.1875 307.551 2.10938 307.949 2.10938C308.199 2.10938 308.488 2.14063 308.816 2.20312C309.145 2.25781 309.414 2.34766 309.625 2.47266C309.578 2.69141 309.512 3.07031 309.426 3.60938C309.34 4.14844 309.297 4.94531 309.297 6H313.375V6.50391C313.375 6.84766 313.297 7.08984 313.141 7.23047C312.992 7.37109 312.75 7.44141 312.414 7.44141H309.297V14.3086C309.297 16.082 309.945 16.9688 311.242 16.9688C311.633 16.9688 312.023 16.9141 312.414 16.8047C312.805 16.6953 313.129 16.5898 313.387 16.4883C313.645 16.3867 313.77 16.3477 313.762 16.3711L314.137 17.1797ZM317.148 1.92188C317.148 1.47656 317.309 1.10156 317.629 0.796875C317.957 0.492188 318.348 0.339844 318.801 0.339844C319.262 0.339844 319.652 0.492188 319.973 0.796875C320.293 1.10156 320.453 1.47656 320.453 1.92188C320.453 2.35156 320.293 2.71875 319.973 3.02344C319.652 3.32812 319.262 3.48047 318.801 3.48047C318.348 3.48047 317.957 3.32812 317.629 3.02344C317.309 2.71875 317.148 2.35156 317.148 1.92188ZM320.148 16.8281H322.188V17.707C321.922 17.8555 321.484 17.9766 320.875 18.0703C320.266 18.1641 319.68 18.2109 319.117 18.2109C318.641 18.2109 318.238 18.1406 317.91 18C317.59 17.8672 317.43 17.5625 317.43 17.0859V7.14844H315.367V6.26953C315.586 6.16797 315.914 6.08203 316.352 6.01172C316.789 5.94141 317.262 5.88672 317.77 5.84766C318.277 5.80859 318.734 5.78906 319.141 5.78906C319.461 5.78906 319.707 5.81641 319.879 5.87109C320.059 5.91797 320.148 6.09766 320.148 6.41016V16.8281ZM337.234 12.0234C337.234 13.2969 336.945 14.4102 336.367 15.3633C335.797 16.3086 335.027 17.0469 334.059 17.5781C333.09 18.1016 332.008 18.3633 330.812 18.3633C329.609 18.3633 328.52 18.0977 327.543 17.5664C326.566 17.0352 325.789 16.2969 325.211 15.3516C324.641 14.3984 324.355 13.2891 324.355 12.0234C324.355 10.7422 324.641 9.625 325.211 8.67188C325.789 7.71094 326.566 6.96484 327.543 6.43359C328.52 5.90234 329.609 5.63672 330.812 5.63672C332.016 5.63672 333.102 5.90234 334.07 6.43359C335.039 6.96484 335.809 7.71094 336.379 8.67188C336.949 9.625 337.234 10.7422 337.234 12.0234ZM327.25 12C327.25 12.8828 327.348 13.7148 327.543 14.4961C327.738 15.2773 328.094 15.9102 328.609 16.3945C329.125 16.8711 329.859 17.1094 330.812 17.1094C331.766 17.1094 332.496 16.8711 333.004 16.3945C333.512 15.9102 333.859 15.2773 334.047 14.4961C334.242 13.7148 334.34 12.8828 334.34 12C334.34 11.1094 334.242 10.2773 334.047 9.50391C333.859 8.72266 333.512 8.09375 333.004 7.61719C332.496 7.13281 331.766 6.89062 330.812 6.89062C329.859 6.89062 329.125 7.13281 328.609 7.61719C328.094 8.09375 327.738 8.72266 327.543 9.50391C327.348 10.2773 327.25 11.1094 327.25 12ZM341.453 7.17188H339.391V6.29297C339.609 6.19141 339.938 6.10547 340.375 6.03516C340.812 5.96484 341.285 5.91016 341.793 5.87109C342.301 5.83203 342.758 5.8125 343.164 5.8125C343.484 5.8125 343.73 5.83984 343.902 5.89453C344.082 5.94141 344.172 6.12109 344.172 6.43359V7.00781C344.328 6.95312 344.656 6.81641 345.156 6.59766C345.656 6.37109 346.254 6.15625 346.949 5.95312C347.652 5.74219 348.375 5.63672 349.117 5.63672C350.023 5.63672 350.707 5.80078 351.168 6.12891C351.629 6.44922 351.941 6.89062 352.105 7.45312C352.27 8.00781 352.352 8.64453 352.352 9.36328V16.8281H354.391V17.707C354.125 17.8555 353.688 17.9766 353.078 18.0703C352.469 18.1641 351.883 18.2109 351.32 18.2109C350.844 18.2109 350.445 18.1406 350.125 18C349.805 17.8672 349.645 17.5625 349.645 17.0859V9.59766C349.645 8.80859 349.539 8.24219 349.328 7.89844C349.117 7.54688 348.676 7.37109 348.004 7.37109C347.684 7.37109 347.312 7.40625 346.891 7.47656C346.477 7.53906 346.066 7.61328 345.66 7.69922C345.262 7.78516 344.922 7.86328 344.641 7.93359C344.367 8.00391 344.211 8.04688 344.172 8.0625V14.4727C344.172 15.4336 344.215 16.1797 344.301 16.7109C344.387 17.2422 344.453 17.6172 344.5 17.8359C344.289 17.9531 344.02 18.043 343.691 18.1055C343.363 18.1758 343.074 18.2109 342.824 18.2109C342.426 18.2109 342.098 18.1328 341.84 17.9766C341.582 17.8125 341.453 17.5156 341.453 17.0859V7.17188ZM364.258 1.92188C364.258 1.47656 364.418 1.10156 364.738 0.796875C365.066 0.492188 365.457 0.339844 365.91 0.339844C366.371 0.339844 366.762 0.492188 367.082 0.796875C367.402 1.10156 367.562 1.47656 367.562 1.92188C367.562 2.35156 367.402 2.71875 367.082 3.02344C366.762 3.32812 366.371 3.48047 365.91 3.48047C365.457 3.48047 365.066 3.32812 364.738 3.02344C364.418 2.71875 364.258 2.35156 364.258 1.92188ZM367.258 16.8281H369.297V17.707C369.031 17.8555 368.594 17.9766 367.984 18.0703C367.375 18.1641 366.789 18.2109 366.227 18.2109C365.75 18.2109 365.348 18.1406 365.02 18C364.699 17.8672 364.539 17.5625 364.539 17.0859V7.14844H362.477V6.26953C362.695 6.16797 363.023 6.08203 363.461 6.01172C363.898 5.94141 364.371 5.88672 364.879 5.84766C365.387 5.80859 365.844 5.78906 366.25 5.78906C366.57 5.78906 366.816 5.81641 366.988 5.87109C367.168 5.91797 367.258 6.09766 367.258 6.41016V16.8281ZM372.93 7.17188H370.867V6.29297C371.086 6.19141 371.414 6.10547 371.852 6.03516C372.289 5.96484 372.762 5.91016 373.27 5.87109C373.777 5.83203 374.234 5.8125 374.641 5.8125C374.961 5.8125 375.207 5.83984 375.379 5.89453C375.559 5.94141 375.648 6.12109 375.648 6.43359V7.00781C375.805 6.95312 376.133 6.81641 376.633 6.59766C377.133 6.37109 377.73 6.15625 378.426 5.95312C379.129 5.74219 379.852 5.63672 380.594 5.63672C381.5 5.63672 382.184 5.80078 382.645 6.12891C383.105 6.44922 383.418 6.89062 383.582 7.45312C383.746 8.00781 383.828 8.64453 383.828 9.36328V16.8281H385.867V17.707C385.602 17.8555 385.164 17.9766 384.555 18.0703C383.945 18.1641 383.359 18.2109 382.797 18.2109C382.32 18.2109 381.922 18.1406 381.602 18C381.281 17.8672 381.121 17.5625 381.121 17.0859V9.59766C381.121 8.80859 381.016 8.24219 380.805 7.89844C380.594 7.54688 380.152 7.37109 379.48 7.37109C379.16 7.37109 378.789 7.40625 378.367 7.47656C377.953 7.53906 377.543 7.61328 377.137 7.69922C376.738 7.78516 376.398 7.86328 376.117 7.93359C375.844 8.00391 375.688 8.04688 375.648 8.0625V14.4727C375.648 15.4336 375.691 16.1797 375.777 16.7109C375.863 17.2422 375.93 17.6172 375.977 17.8359C375.766 17.9531 375.496 18.043 375.168 18.1055C374.84 18.1758 374.551 18.2109 374.301 18.2109C373.902 18.2109 373.574 18.1328 373.316 17.9766C373.059 17.8125 372.93 17.5156 372.93 17.0859V7.17188ZM397.105 17.1797C396.559 17.5156 395.996 17.7969 395.418 18.0234C394.848 18.25 394.125 18.3633 393.25 18.3633C392.109 18.3633 391.207 18.0234 390.543 17.3438C389.879 16.6641 389.547 15.7227 389.547 14.5195V7.44141H387.121V6.91406C387.121 6.5625 387.195 6.32422 387.344 6.19922C387.5 6.06641 387.746 6 388.082 6H389.547V3.21094C389.547 2.78125 389.676 2.49219 389.934 2.34375C390.191 2.1875 390.52 2.10938 390.918 2.10938C391.168 2.10938 391.457 2.14063 391.785 2.20312C392.113 2.25781 392.383 2.34766 392.594 2.47266C392.547 2.69141 392.48 3.07031 392.395 3.60938C392.309 4.14844 392.266 4.94531 392.266 6H396.344V6.50391C396.344 6.84766 396.266 7.08984 396.109 7.23047C395.961 7.37109 395.719 7.44141 395.383 7.44141H392.266V14.3086C392.266 16.082 392.914 16.9688 394.211 16.9688C394.602 16.9688 394.992 16.9141 395.383 16.8047C395.773 16.6953 396.098 16.5898 396.355 16.4883C396.613 16.3867 396.738 16.3477 396.73 16.3711L397.105 17.1797ZM411.812 12.0234C411.812 13.2969 411.523 14.4102 410.945 15.3633C410.375 16.3086 409.605 17.0469 408.637 17.5781C407.668 18.1016 406.586 18.3633 405.391 18.3633C404.188 18.3633 403.098 18.0977 402.121 17.5664C401.145 17.0352 400.367 16.2969 399.789 15.3516C399.219 14.3984 398.934 13.2891 398.934 12.0234C398.934 10.7422 399.219 9.625 399.789 8.67188C400.367 7.71094 401.145 6.96484 402.121 6.43359C403.098 5.90234 404.188 5.63672 405.391 5.63672C406.594 5.63672 407.68 5.90234 408.648 6.43359C409.617 6.96484 410.387 7.71094 410.957 8.67188C411.527 9.625 411.812 10.7422 411.812 12.0234ZM401.828 12C401.828 12.8828 401.926 13.7148 402.121 14.4961C402.316 15.2773 402.672 15.9102 403.188 16.3945C403.703 16.8711 404.438 17.1094 405.391 17.1094C406.344 17.1094 407.074 16.8711 407.582 16.3945C408.09 15.9102 408.438 15.2773 408.625 14.4961C408.82 13.7148 408.918 12.8828 408.918 12C408.918 11.1094 408.82 10.2773 408.625 9.50391C408.438 8.72266 408.09 8.09375 407.582 7.61719C407.074 7.13281 406.344 6.89062 405.391 6.89062C404.438 6.89062 403.703 7.13281 403.188 7.61719C402.672 8.09375 402.316 8.72266 402.121 9.50391C401.926 10.2773 401.828 11.1094 401.828 12ZM434.699 16.1484L436.598 14.9062L437.172 15.6914C436.938 16.0195 436.625 16.3789 436.234 16.7695C435.844 17.1602 435.418 17.5 434.957 17.7891C434.496 18.0703 434.043 18.2109 433.598 18.2109C433.371 18.2109 433.141 18.1523 432.906 18.0352C432.68 17.9258 432.469 17.7148 432.273 17.4023L428.629 11.543C428.434 11.543 428.043 11.5391 427.457 11.5312C426.871 11.5156 426.234 11.4805 425.547 11.4258V14.3086C425.547 15.3008 425.605 16.0781 425.723 16.6406C425.848 17.1953 425.934 17.5859 425.98 17.8125C425.754 17.9375 425.469 18.0352 425.125 18.1055C424.789 18.1758 424.484 18.2109 424.211 18.2109C423.805 18.2109 423.465 18.1289 423.191 17.9648C422.926 17.793 422.793 17.4844 422.793 17.0391V3L420.531 3.14062V2.10938C420.688 2.05469 420.902 1.98047 421.176 1.88672C421.457 1.78516 421.859 1.68359 422.383 1.58203C422.914 1.48047 423.625 1.39453 424.516 1.32422C425.406 1.25391 426.543 1.21875 427.926 1.21875C428.816 1.21875 429.652 1.29688 430.434 1.45312C431.215 1.60937 431.906 1.88281 432.508 2.27344C433.109 2.65625 433.578 3.19141 433.914 3.87891C434.258 4.56641 434.43 5.44141 434.43 6.50391C434.43 7.64453 434.16 8.60938 433.621 9.39844C433.09 10.1797 432.32 10.75 431.312 11.1094L434.699 16.1484ZM425.547 9.77344C425.547 9.77344 425.73 9.81641 426.098 9.90234C426.465 9.98828 426.996 10.0312 427.691 10.0312C428.762 10.0312 429.578 9.86328 430.141 9.52734C430.711 9.19141 431.102 8.75391 431.312 8.21484C431.523 7.67578 431.629 7.10547 431.629 6.50391C431.629 6.00391 431.582 5.53125 431.488 5.08594C431.402 4.63281 431.219 4.23438 430.938 3.89062C430.664 3.53906 430.25 3.26562 429.695 3.07031C429.141 2.86719 428.398 2.76562 427.469 2.76562C427.18 2.76562 426.867 2.77344 426.531 2.78906C426.203 2.80469 425.875 2.83594 425.547 2.88281V9.77344ZM438.695 12C438.695 10.7578 438.957 9.66016 439.48 8.70703C440.012 7.74609 440.77 6.99609 441.754 6.45703C442.746 5.91016 443.934 5.63672 445.316 5.63672C446.355 5.63672 447.246 5.85156 447.988 6.28125C448.738 6.71094 449.312 7.27344 449.711 7.96875C450.109 8.66406 450.309 9.41406 450.309 10.2188C450.309 10.5859 450.262 10.9531 450.168 11.3203C450.074 11.6875 449.895 11.9922 449.629 12.2344C449.371 12.4766 448.98 12.5977 448.457 12.5977H441.449C441.605 14.0039 442.16 15.082 443.113 15.832C444.066 16.5742 445.23 16.9453 446.605 16.9453C447.566 16.9453 448.566 16.7773 449.605 16.4414L449.992 17.2266C449.359 17.6562 448.637 17.9688 447.824 18.1641C447.012 18.3594 446.215 18.457 445.434 18.457C444.574 18.457 443.742 18.3203 442.938 18.0469C442.133 17.7812 441.41 17.3789 440.77 16.8398C440.137 16.3008 439.633 15.6289 439.258 14.8242C438.883 14.0195 438.695 13.0781 438.695 12ZM447.496 11.1562C447.543 11 447.574 10.8438 447.59 10.6875C447.605 10.5312 447.613 10.3672 447.613 10.1953C447.613 9.67969 447.5 9.17188 447.273 8.67188C447.055 8.17188 446.727 7.75781 446.289 7.42969C445.859 7.10156 445.328 6.9375 444.695 6.9375C443.898 6.9375 443.266 7.13672 442.797 7.53516C442.336 7.92578 442 8.44141 441.789 9.08203C441.586 9.72266 441.465 10.4141 441.426 11.1562H447.496ZM460.75 16.9688C460.75 16.9609 460.637 17.0273 460.41 17.168C460.191 17.3086 459.891 17.4727 459.508 17.6602C459.133 17.8477 458.715 18.0117 458.254 18.1523C457.793 18.293 457.32 18.3633 456.836 18.3633C456.156 18.3633 455.527 18.2422 454.949 18C454.371 17.75 453.906 17.3672 453.555 16.8516C453.203 16.3281 453.027 15.6641 453.027 14.8594C453.027 13.9609 453.285 13.2422 453.801 12.7031C454.324 12.1641 455.043 11.7773 455.957 11.543C456.871 11.3008 457.918 11.1797 459.098 11.1797H460.75V10.3008C460.75 9.69141 460.711 9.125 460.633 8.60156C460.555 8.07812 460.383 7.66016 460.117 7.34766C459.859 7.02734 459.453 6.86719 458.898 6.86719C458.375 6.86719 457.844 6.98828 457.305 7.23047C456.773 7.47266 456.266 7.76562 455.781 8.10938C455.297 8.45312 454.859 8.78125 454.469 9.09375L453.508 7.80469C453.391 7.66406 453.332 7.51953 453.332 7.37109C453.332 7.11328 453.492 6.87891 453.812 6.66797C454.133 6.45703 454.543 6.27344 455.043 6.11719C455.543 5.96094 456.07 5.84375 456.625 5.76562C457.188 5.67969 457.707 5.63672 458.184 5.63672C459.145 5.63672 460.023 5.79297 460.82 6.10547C461.625 6.41016 462.266 6.90625 462.742 7.59375C463.227 8.27344 463.469 9.17578 463.469 10.3008V16.8281H465.508V17.707C465.242 17.8555 464.805 17.9766 464.195 18.0703C463.586 18.1641 462.996 18.2109 462.426 18.2109C462.043 18.2109 461.672 18.1445 461.312 18.0117C460.961 17.8867 460.773 17.5781 460.75 17.0859V16.9688ZM457.656 16.6289C457.93 16.6289 458.242 16.5938 458.594 16.5234C458.945 16.4531 459.285 16.3711 459.613 16.2773C459.941 16.1758 460.211 16.0898 460.422 16.0195C460.641 15.9492 460.75 15.9141 460.75 15.9141V12.6211H458.781C458.391 12.6211 457.953 12.6758 457.469 12.7852C456.992 12.8867 456.578 13.0898 456.227 13.3945C455.883 13.6914 455.711 14.1367 455.711 14.7305C455.711 15.2852 455.879 15.7422 456.215 16.1016C456.551 16.4531 457.031 16.6289 457.656 16.6289ZM471.062 16.8281H473.102V17.707C472.836 17.8555 472.398 17.9766 471.789 18.0703C471.18 18.1641 470.594 18.2109 470.031 18.2109C469.555 18.2109 469.156 18.1406 468.836 18C468.516 17.8672 468.355 17.5625 468.355 17.0859V1.37109H466.281V0.480469C466.5 0.378906 466.828 0.292969 467.266 0.222656C467.711 0.152344 468.184 0.0976562 468.684 0.0585938C469.191 0.0195313 469.648 0 470.055 0C470.375 0 470.621 0.0273437 470.793 0.0820312C470.973 0.128906 471.062 0.308594 471.062 0.621094V16.8281ZM475.633 11.543V10.8047C475.633 10.4531 475.707 10.2148 475.855 10.0898C476.012 9.95703 476.258 9.89062 476.594 9.89062H482.523V10.6055C482.523 10.957 482.449 11.2031 482.301 11.3438C482.152 11.4766 481.906 11.543 481.562 11.543H475.633ZM489.496 3.09375C488.52 3.09375 487.617 3.13672 486.789 3.22266C485.961 3.30859 485.25 3.40234 484.656 3.50391C484.062 3.60547 483.621 3.67578 483.332 3.71484C483.34 3.71484 483.324 3.62891 483.285 3.45703C483.246 3.28516 483.207 3.08984 483.168 2.87109C483.129 2.64453 483.109 2.44922 483.109 2.28516C483.109 1.93359 483.305 1.70312 483.695 1.59375C484.094 1.48438 484.625 1.43359 485.289 1.44141C485.961 1.44141 486.699 1.44141 487.504 1.44141H490.938C491.656 1.44141 492.68 1.42969 494.008 1.40625C495.344 1.375 496.793 1.25781 498.355 1.05469H498.379H498.355C498.363 1.08594 498.398 1.23047 498.461 1.48828C498.531 1.74609 498.566 2.03516 498.566 2.35547C498.566 2.61328 498.449 2.80078 498.215 2.91797C497.988 3.02734 497.688 3.09766 497.312 3.12891C496.945 3.15234 496.547 3.16406 496.117 3.16406C495.234 3.16406 494.48 3.15625 493.855 3.14062C493.23 3.11719 492.699 3.10156 492.262 3.09375V14.3086C492.262 15.3008 492.309 16.0781 492.402 16.6406C492.496 17.1953 492.566 17.5859 492.613 17.8125C492.387 17.9375 492.113 18.0352 491.793 18.1055C491.473 18.1758 491.18 18.2109 490.914 18.2109C490.508 18.2109 490.168 18.1289 489.895 17.9648C489.629 17.793 489.496 17.4844 489.496 17.0391V3.09375ZM501.039 1.92188C501.039 1.47656 501.199 1.10156 501.52 0.796875C501.848 0.492188 502.238 0.339844 502.691 0.339844C503.152 0.339844 503.543 0.492188 503.863 0.796875C504.184 1.10156 504.344 1.47656 504.344 1.92188C504.344 2.35156 504.184 2.71875 503.863 3.02344C503.543 3.32812 503.152 3.48047 502.691 3.48047C502.238 3.48047 501.848 3.32812 501.52 3.02344C501.199 2.71875 501.039 2.35156 501.039 1.92188ZM504.039 16.8281H506.078V17.707C505.812 17.8555 505.375 17.9766 504.766 18.0703C504.156 18.1641 503.57 18.2109 503.008 18.2109C502.531 18.2109 502.129 18.1406 501.801 18C501.48 17.8672 501.32 17.5625 501.32 17.0859V7.14844H499.258V6.26953C499.477 6.16797 499.805 6.08203 500.242 6.01172C500.68 5.94141 501.152 5.88672 501.66 5.84766C502.168 5.80859 502.625 5.78906 503.031 5.78906C503.352 5.78906 503.598 5.81641 503.77 5.87109C503.949 5.91797 504.039 6.09766 504.039 6.41016V16.8281ZM520.176 14.4727C520.176 15.4336 520.219 16.1797 520.305 16.7109C520.398 17.2422 520.469 17.6172 520.516 17.8359C520.297 17.9531 520.023 18.043 519.695 18.1055C519.375 18.1758 519.09 18.2109 518.84 18.2109C518.441 18.2109 518.113 18.1328 517.855 17.9766C517.598 17.8125 517.469 17.5156 517.469 17.0859V9.43359C517.469 8.79297 517.398 8.29297 517.258 7.93359C517.125 7.57422 516.738 7.39453 516.098 7.39453C515.785 7.39453 515.418 7.42969 514.996 7.5C514.582 7.5625 514.176 7.64062 513.777 7.73438C513.387 7.82031 513.062 7.89844 512.805 7.96875C512.547 8.03125 512.422 8.0625 512.43 8.0625V14.4727C512.43 15.4336 512.473 16.1797 512.559 16.7109C512.645 17.2422 512.711 17.6172 512.758 17.8359C512.547 17.9531 512.277 18.043 511.949 18.1055C511.621 18.1758 511.332 18.2109 511.082 18.2109C510.684 18.2109 510.355 18.1328 510.098 17.9766C509.84 17.8125 509.711 17.5156 509.711 17.0859V7.17188H507.648V6.29297C507.867 6.19141 508.195 6.10547 508.633 6.03516C509.07 5.96484 509.543 5.91016 510.051 5.87109C510.559 5.83203 511.016 5.8125 511.422 5.8125C511.742 5.8125 511.988 5.83984 512.16 5.89453C512.34 5.94141 512.43 6.12109 512.43 6.43359V7.00781C512.43 7.01562 512.574 6.95312 512.863 6.82031C513.16 6.6875 513.547 6.52734 514.023 6.33984C514.508 6.15234 515.031 5.98828 515.594 5.84766C516.156 5.70703 516.707 5.63672 517.246 5.63672C517.793 5.63672 518.312 5.73047 518.805 5.91797C519.297 6.10547 519.645 6.46875 519.848 7.00781C519.848 7.01562 519.996 6.95312 520.293 6.82031C520.598 6.6875 520.992 6.52734 521.477 6.33984C521.961 6.15234 522.488 5.98828 523.059 5.84766C523.629 5.70703 524.188 5.63672 524.734 5.63672C525.656 5.63672 526.344 5.79297 526.797 6.10547C527.258 6.41016 527.562 6.83594 527.711 7.38281C527.859 7.92188 527.934 8.55078 527.934 9.26953V16.8281H529.973V17.707C529.707 17.8555 529.27 17.9766 528.66 18.0703C528.051 18.1641 527.465 18.2109 526.902 18.2109C526.426 18.2109 526.023 18.1406 525.695 18C525.375 17.8672 525.215 17.5625 525.215 17.0859V9.43359C525.215 8.79297 525.145 8.29297 525.004 7.93359C524.871 7.57422 524.488 7.39453 523.855 7.39453C523.66 7.39453 523.387 7.41797 523.035 7.46484C522.684 7.51172 522.312 7.57031 521.922 7.64062C521.531 7.71094 521.172 7.78125 520.844 7.85156C520.516 7.92188 520.27 7.97656 520.105 8.01562C520.152 8.39844 520.176 8.81641 520.176 9.26953V14.4727ZM532.094 12C532.094 10.7578 532.355 9.66016 532.879 8.70703C533.41 7.74609 534.168 6.99609 535.152 6.45703C536.145 5.91016 537.332 5.63672 538.715 5.63672C539.754 5.63672 540.645 5.85156 541.387 6.28125C542.137 6.71094 542.711 7.27344 543.109 7.96875C543.508 8.66406 543.707 9.41406 543.707 10.2188C543.707 10.5859 543.66 10.9531 543.566 11.3203C543.473 11.6875 543.293 11.9922 543.027 12.2344C542.77 12.4766 542.379 12.5977 541.855 12.5977H534.848C535.004 14.0039 535.559 15.082 536.512 15.832C537.465 16.5742 538.629 16.9453 540.004 16.9453C540.965 16.9453 541.965 16.7773 543.004 16.4414L543.391 17.2266C542.758 17.6562 542.035 17.9688 541.223 18.1641C540.41 18.3594 539.613 18.457 538.832 18.457C537.973 18.457 537.141 18.3203 536.336 18.0469C535.531 17.7812 534.809 17.3789 534.168 16.8398C533.535 16.3008 533.031 15.6289 532.656 14.8242C532.281 14.0195 532.094 13.0781 532.094 12ZM540.895 11.1562C540.941 11 540.973 10.8438 540.988 10.6875C541.004 10.5312 541.012 10.3672 541.012 10.1953C541.012 9.67969 540.898 9.17188 540.672 8.67188C540.453 8.17188 540.125 7.75781 539.688 7.42969C539.258 7.10156 538.727 6.9375 538.094 6.9375C537.297 6.9375 536.664 7.13672 536.195 7.53516C535.734 7.92578 535.398 8.44141 535.188 9.08203C534.984 9.72266 534.863 10.4141 534.824 11.1562H540.895ZM570.93 15.293H571.082C571.613 13.6914 572.047 12.3477 572.383 11.2617C572.719 10.168 572.98 9.27344 573.168 8.57812C573.363 7.88281 573.504 7.33203 573.59 6.92578C573.684 6.51953 573.738 6.20703 573.754 5.98828C573.777 5.76172 573.789 5.57422 573.789 5.42578C573.789 4.73047 573.715 4.10156 573.566 3.53906C573.426 2.96875 573.301 2.50781 573.191 2.15625L575.09 1.34766C575.199 1.29297 575.297 1.25781 575.383 1.24219C575.469 1.22656 575.555 1.21875 575.641 1.21875C575.93 1.21875 576.152 1.35547 576.309 1.62891C576.465 1.89453 576.543 2.25391 576.543 2.70703C576.543 3.34766 576.41 4.21875 576.145 5.32031C575.887 6.42188 575.523 7.66797 575.055 9.05859C574.594 10.4492 574.055 11.9102 573.438 13.4414C572.82 14.9727 572.152 16.4922 571.434 18H570.016C569.648 18 569.359 17.9375 569.148 17.8125C568.938 17.6797 568.766 17.4219 568.633 17.0391L565.457 8.17969C565.316 8.79688 565.113 9.52344 564.848 10.3594C564.582 11.1875 564.277 12.0586 563.934 12.9727C563.59 13.8789 563.227 14.7695 562.844 15.6445C562.469 16.5117 562.102 17.2969 561.742 18H560.254C559.879 18 559.59 17.9375 559.387 17.8125C559.184 17.6797 559.008 17.4219 558.859 17.0391L553.82 3.38672L551.758 4.30078L551.371 3.45703C551.629 3.21484 551.98 2.91797 552.426 2.56641C552.871 2.21484 553.332 1.90234 553.809 1.62891C554.285 1.35547 554.703 1.21875 555.062 1.21875C555.305 1.21875 555.543 1.28125 555.777 1.40625C556.02 1.53125 556.191 1.74219 556.293 2.03906L561.191 15.293H561.332C561.707 14.4258 562.051 13.5117 562.363 12.5508C562.676 11.5898 562.957 10.6484 563.207 9.72656C563.457 8.79688 563.672 7.93359 563.852 7.13672C564.039 6.33984 564.191 5.67188 564.309 5.13281L564.215 4.82812C563.902 3.89062 563.625 3.19922 563.383 2.75391C563.148 2.30078 562.977 1.99219 562.867 1.82812C563.133 1.60156 563.441 1.44531 563.793 1.35938C564.145 1.26562 564.453 1.21875 564.719 1.21875C565.133 1.21875 565.461 1.28516 565.703 1.41797C565.945 1.55078 566.145 1.84766 566.301 2.30859L570.93 15.293ZM578.664 12C578.664 10.7578 578.926 9.66016 579.449 8.70703C579.98 7.74609 580.738 6.99609 581.723 6.45703C582.715 5.91016 583.902 5.63672 585.285 5.63672C586.324 5.63672 587.215 5.85156 587.957 6.28125C588.707 6.71094 589.281 7.27344 589.68 7.96875C590.078 8.66406 590.277 9.41406 590.277 10.2188C590.277 10.5859 590.23 10.9531 590.137 11.3203C590.043 11.6875 589.863 11.9922 589.598 12.2344C589.34 12.4766 588.949 12.5977 588.426 12.5977H581.418C581.574 14.0039 582.129 15.082 583.082 15.832C584.035 16.5742 585.199 16.9453 586.574 16.9453C587.535 16.9453 588.535 16.7773 589.574 16.4414L589.961 17.2266C589.328 17.6562 588.605 17.9688 587.793 18.1641C586.98 18.3594 586.184 18.457 585.402 18.457C584.543 18.457 583.711 18.3203 582.906 18.0469C582.102 17.7812 581.379 17.3789 580.738 16.8398C580.105 16.3008 579.602 15.6289 579.227 14.8242C578.852 14.0195 578.664 13.0781 578.664 12ZM587.465 11.1562C587.512 11 587.543 10.8438 587.559 10.6875C587.574 10.5312 587.582 10.3672 587.582 10.1953C587.582 9.67969 587.469 9.17188 587.242 8.67188C587.023 8.17188 586.695 7.75781 586.258 7.42969C585.828 7.10156 585.297 6.9375 584.664 6.9375C583.867 6.9375 583.234 7.13672 582.766 7.53516C582.305 7.92578 581.969 8.44141 581.758 9.08203C581.555 9.72266 581.434 10.4141 581.395 11.1562H587.465ZM596.781 7.07812C597.359 6.69531 598.02 6.35938 598.762 6.07031C599.504 5.78125 600.234 5.63672 600.953 5.63672C602.148 5.63672 603.121 5.91016 603.871 6.45703C604.621 6.99609 605.172 7.72266 605.523 8.63672C605.875 9.55078 606.051 10.5664 606.051 11.6836C606.051 12.9648 605.773 14.1094 605.219 15.1172C604.664 16.125 603.895 16.918 602.91 17.4961C601.926 18.0742 600.785 18.3633 599.488 18.3633C598.402 18.3633 597.379 18.2266 596.418 17.9531C595.465 17.6719 594.684 17.3984 594.074 17.1328V1.37109H592V0.480469C592.219 0.378906 592.547 0.292969 592.984 0.222656C593.43 0.152344 593.902 0.0976562 594.402 0.0585938C594.91 0.0195313 595.367 0 595.773 0C596.094 0 596.34 0.0273437 596.512 0.0820312C596.691 0.128906 596.781 0.308594 596.781 0.621094V7.07812ZM600.555 7.05469C599.906 7.05469 599.258 7.16797 598.609 7.39453C597.969 7.62109 597.359 7.89062 596.781 8.20312V16.6758C596.781 16.6836 596.91 16.7188 597.168 16.7812C597.434 16.8438 597.766 16.9062 598.164 16.9688C598.57 17.0312 598.98 17.0625 599.395 17.0625C600.652 17.0625 601.59 16.5664 602.207 15.5742C602.832 14.582 603.145 13.2227 603.145 11.4961C603.145 10.1523 602.949 9.07812 602.559 8.27344C602.176 7.46094 601.508 7.05469 600.555 7.05469ZM609.73 15.1641C610.012 15.3672 610.367 15.6211 610.797 15.9258C611.234 16.2305 611.715 16.5 612.238 16.7344C612.77 16.9688 613.309 17.0859 613.855 17.0859C614.371 17.0859 614.832 16.9375 615.238 16.6406C615.645 16.3359 615.848 15.9102 615.848 15.3633C615.848 14.9336 615.676 14.5742 615.332 14.2852C614.988 13.9883 614.586 13.7383 614.125 13.5352C613.664 13.3242 613.254 13.1406 612.895 12.9844C612.285 12.7109 611.684 12.418 611.09 12.1055C610.504 11.793 610.016 11.3945 609.625 10.9102C609.242 10.418 609.051 9.77344 609.051 8.97656C609.051 8.17188 609.305 7.52734 609.812 7.04297C610.328 6.55078 610.969 6.19531 611.734 5.97656C612.5 5.75 613.27 5.63672 614.043 5.63672C614.527 5.63672 615.035 5.66797 615.566 5.73047C616.098 5.78516 616.547 5.87891 616.914 6.01172C617.289 6.14453 617.477 6.32422 617.477 6.55078C617.477 6.60547 617.453 6.6875 617.406 6.79688L616.609 8.33203C616.414 8.19922 616.125 8.03125 615.742 7.82812C615.367 7.61719 614.941 7.42969 614.465 7.26562C613.996 7.09375 613.512 7.00781 613.012 7.00781C612.473 7.00781 612.031 7.13281 611.688 7.38281C611.344 7.63281 611.172 7.98828 611.172 8.44922C611.172 8.92578 611.344 9.32422 611.688 9.64453C612.031 9.96484 612.473 10.2461 613.012 10.4883C613.551 10.7227 614.121 10.9531 614.723 11.1797C615.324 11.4062 615.895 11.668 616.434 11.9648C616.973 12.2539 617.414 12.6133 617.758 13.043C618.102 13.4727 618.273 14.0117 618.273 14.6602C618.273 15.3477 618.125 15.9297 617.828 16.4062C617.539 16.875 617.152 17.2539 616.668 17.543C616.191 17.832 615.664 18.0391 615.086 18.1641C614.508 18.2969 613.938 18.3633 613.375 18.3633C612.891 18.3633 612.379 18.3086 611.84 18.1992C611.301 18.0977 610.793 17.9648 610.316 17.8008C609.848 17.6367 609.465 17.4648 609.168 17.2852C608.871 17.0977 608.723 16.9219 608.723 16.7578C608.723 16.6562 608.746 16.5586 608.793 16.4648L609.73 15.1641ZM622 1.92188C622 1.47656 622.16 1.10156 622.48 0.796875C622.809 0.492188 623.199 0.339844 623.652 0.339844C624.113 0.339844 624.504 0.492188 624.824 0.796875C625.145 1.10156 625.305 1.47656 625.305 1.92188C625.305 2.35156 625.145 2.71875 624.824 3.02344C624.504 3.32812 624.113 3.48047 623.652 3.48047C623.199 3.48047 622.809 3.32812 622.48 3.02344C622.16 2.71875 622 2.35156 622 1.92188ZM625 16.8281H627.039V17.707C626.773 17.8555 626.336 17.9766 625.727 18.0703C625.117 18.1641 624.531 18.2109 623.969 18.2109C623.492 18.2109 623.09 18.1406 622.762 18C622.441 17.8672 622.281 17.5625 622.281 17.0859V7.14844H620.219V6.26953C620.438 6.16797 620.766 6.08203 621.203 6.01172C621.641 5.94141 622.113 5.88672 622.621 5.84766C623.129 5.80859 623.586 5.78906 623.992 5.78906C624.312 5.78906 624.559 5.81641 624.73 5.87109C624.91 5.91797 625 6.09766 625 6.41016V16.8281ZM638.324 17.1797C637.777 17.5156 637.215 17.7969 636.637 18.0234C636.066 18.25 635.344 18.3633 634.469 18.3633C633.328 18.3633 632.426 18.0234 631.762 17.3438C631.098 16.6641 630.766 15.7227 630.766 14.5195V7.44141H628.34V6.91406C628.34 6.5625 628.414 6.32422 628.562 6.19922C628.719 6.06641 628.965 6 629.301 6H630.766V3.21094C630.766 2.78125 630.895 2.49219 631.152 2.34375C631.41 2.1875 631.738 2.10938 632.137 2.10938C632.387 2.10938 632.676 2.14063 633.004 2.20312C633.332 2.25781 633.602 2.34766 633.812 2.47266C633.766 2.69141 633.699 3.07031 633.613 3.60938C633.527 4.14844 633.484 4.94531 633.484 6H637.562V6.50391C637.562 6.84766 637.484 7.08984 637.328 7.23047C637.18 7.37109 636.938 7.44141 636.602 7.44141H633.484V14.3086C633.484 16.082 634.133 16.9688 635.43 16.9688C635.82 16.9688 636.211 16.9141 636.602 16.8047C636.992 16.6953 637.316 16.5898 637.574 16.4883C637.832 16.3867 637.957 16.3477 637.949 16.3711L638.324 17.1797ZM639.578 12C639.578 10.7578 639.84 9.66016 640.363 8.70703C640.895 7.74609 641.652 6.99609 642.637 6.45703C643.629 5.91016 644.816 5.63672 646.199 5.63672C647.238 5.63672 648.129 5.85156 648.871 6.28125C649.621 6.71094 650.195 7.27344 650.594 7.96875C650.992 8.66406 651.191 9.41406 651.191 10.2188C651.191 10.5859 651.145 10.9531 651.051 11.3203C650.957 11.6875 650.777 11.9922 650.512 12.2344C650.254 12.4766 649.863 12.5977 649.34 12.5977H642.332C642.488 14.0039 643.043 15.082 643.996 15.832C644.949 16.5742 646.113 16.9453 647.488 16.9453C648.449 16.9453 649.449 16.7773 650.488 16.4414L650.875 17.2266C650.242 17.6562 649.52 17.9688 648.707 18.1641C647.895 18.3594 647.098 18.457 646.316 18.457C645.457 18.457 644.625 18.3203 643.82 18.0469C643.016 17.7812 642.293 17.3789 641.652 16.8398C641.02 16.3008 640.516 15.6289 640.141 14.8242C639.766 14.0195 639.578 13.0781 639.578 12ZM648.379 11.1562C648.426 11 648.457 10.8438 648.473 10.6875C648.488 10.5312 648.496 10.3672 648.496 10.1953C648.496 9.67969 648.383 9.17188 648.156 8.67188C647.938 8.17188 647.609 7.75781 647.172 7.42969C646.742 7.10156 646.211 6.9375 645.578 6.9375C644.781 6.9375 644.148 7.13672 643.68 7.53516C643.219 7.92578 642.883 8.44141 642.672 9.08203C642.469 9.72266 642.348 10.4141 642.309 11.1562H648.379ZM654.801 15.1641C655.082 15.3672 655.438 15.6211 655.867 15.9258C656.305 16.2305 656.785 16.5 657.309 16.7344C657.84 16.9688 658.379 17.0859 658.926 17.0859C659.441 17.0859 659.902 16.9375 660.309 16.6406C660.715 16.3359 660.918 15.9102 660.918 15.3633C660.918 14.9336 660.746 14.5742 660.402 14.2852C660.059 13.9883 659.656 13.7383 659.195 13.5352C658.734 13.3242 658.324 13.1406 657.965 12.9844C657.355 12.7109 656.754 12.418 656.16 12.1055C655.574 11.793 655.086 11.3945 654.695 10.9102C654.312 10.418 654.121 9.77344 654.121 8.97656C654.121 8.17188 654.375 7.52734 654.883 7.04297C655.398 6.55078 656.039 6.19531 656.805 5.97656C657.57 5.75 658.34 5.63672 659.113 5.63672C659.598 5.63672 660.105 5.66797 660.637 5.73047C661.168 5.78516 661.617 5.87891 661.984 6.01172C662.359 6.14453 662.547 6.32422 662.547 6.55078C662.547 6.60547 662.523 6.6875 662.477 6.79688L661.68 8.33203C661.484 8.19922 661.195 8.03125 660.812 7.82812C660.438 7.61719 660.012 7.42969 659.535 7.26562C659.066 7.09375 658.582 7.00781 658.082 7.00781C657.543 7.00781 657.102 7.13281 656.758 7.38281C656.414 7.63281 656.242 7.98828 656.242 8.44922C656.242 8.92578 656.414 9.32422 656.758 9.64453C657.102 9.96484 657.543 10.2461 658.082 10.4883C658.621 10.7227 659.191 10.9531 659.793 11.1797C660.395 11.4062 660.965 11.668 661.504 11.9648C662.043 12.2539 662.484 12.6133 662.828 13.043C663.172 13.4727 663.344 14.0117 663.344 14.6602C663.344 15.3477 663.195 15.9297 662.898 16.4062C662.609 16.875 662.223 17.2539 661.738 17.543C661.262 17.832 660.734 18.0391 660.156 18.1641C659.578 18.2969 659.008 18.3633 658.445 18.3633C657.961 18.3633 657.449 18.3086 656.91 18.1992C656.371 18.0977 655.863 17.9648 655.387 17.8008C654.918 17.6367 654.535 17.4648 654.238 17.2852C653.941 17.0977 653.793 16.9219 653.793 16.7578C653.793 16.6562 653.816 16.5586 653.863 16.4648L654.801 15.1641Z" fill="white"/>
</svg>
